<?xml version="1.0" encoding="UTF-8"?>
<svg id="Capa_2" data-name="Capa 2" xmlns="http://www.w3.org/2000/svg" viewBox="0 0 1146.35 1578.44">
  <defs>
    <style>
      .cls-1 {
      fill: #d96d6d;
      }

      .cls-1, .cls-2 {
      stroke-width: 0px;
      }

      .cls-2 {
      fill: #d96d6d;
      }
    </style>
  </defs>
  <g id="Logos">
    <g id="Dead_City" data-name="Dead City">
      <path class="cls-1"
        d="M109.78,310.06c.28,7.13,1.31,8.22,8.24,6.35,9.69-2.62,19.33-.04,28.99-.13,6.69-.06,13.38-.39,20.07-.37,4.7.01,9.5-.14,14.08.73,21.71,4.08,43.44,7.66,62.64,20.23,22.06,14.45,33.97,35.26,40.62,59.81,6.79,25.05,4.69,50.73,4.81,76.23.22,47.3.24,94.61.46,141.91.16,35.52,1.07,71.05.52,106.55-.28,17.82-1.81,35.98-9.71,52.42-4.97,10.33-11.51,19.92-17.7,29.62-3.51,5.49-8.25,10.22-11.43,15.87-1.82,3.24-1.95,7.6-2.24,11.5-.36,4.68-.08,9.41-.08,14.11-.57.01-1.15.02-1.72.03-.22-4.03-.45-8.06-.71-12.8-2.03-.74-4.79-1.74-8.75-3.18v19.23c-.68.08-1.36.16-2.04.25-.62-3.68-1.7-7.36-1.75-11.04-.07-5.5-2.41-6.89-7.51-5.87-10.03,2.01-11.41,3.46-11.5,13.84-.07,8.97-.04,17.93-.03,26.9,0,3.68,1.85,5.27,5.55,5.5,5.57.34,11.13.94,16.65,1.7,7.97,1.09,9.75-.86,9.18-9.15-.44-6.4-.09-12.85-.09-19.28.52-.06,1.03-.11,1.55-.17.22,2.14.58,4.28.63,6.42.12,5.36.56,10.77.03,16.08-.72,7.14,3.41,9.55,9.03,11.95,14.15,6.05,28.11,13.1,38.38,24.68,7,7.89,12.11,17.66,17.06,27.12,4,7.65,7.02,15.92,9.48,24.22,1.72,5.8,2.41,12.08,2.48,18.16.26,24.59.47,49.2-.03,73.78-.3,14.69-2.22,29.33-2.9,44.02-.52,11.06-.57,22.18-.18,33.25.27,7.56-4.7,14.59-12.39,14.63-12.25.06-24.52-.42-36.76-.96-7.48-.33-14.93-1.4-22.41-1.77-7.33-.36-14.7-.59-21.99-.03-1.29.1-2.27,4.3-3.67,7.17-4.97-2.34-5.62,1.63-6.75,6.58-1.13,5-3.84,9.64-6.37,15.65-1.43-2.23-2.27-2.95-2.15-3.45,1.19-5.15,2.08-10.45,3.96-15.35,2.64-6.89-.38-12.04-8.91-13.34-2.48-.38-5.13.51-7.69.42-3.92-.15-7.82-.64-11.73-.99.45-.66.9-1.31,1.35-1.97-.69-3.47-1.71-6.91-1.97-10.4-.27-3.71.27-7.46.31-11.2.04-3.86-.18-7.72-.14-11.57.03-2.38.49-4.75.48-7.12-.03-6.7-.19-13.4-.33-20.1-.02-1.19-.26-2.38-.25-3.56.16-11.93.62-23.86.45-35.78-.12-8.71-.91-17.43-1.75-26.1-.15-1.55-2.05-2.93-3.14-4.38-1.07,1.44-2.94,2.8-3.08,4.33-.56,5.73-.53,11.51-.76,17.26-.19,4.5-.44,9.01-.66,13.51-.59.02-1.18.04-1.78.06-.61-11.34-1.21-22.68-1.82-34.03-.8-.05-1.6-.1-2.41-.15-.58,2.05-1.58,4.08-1.66,6.14-.17,4.4-2.14,6.47-6.4,5.27-4.68-1.32-6.03,1.12-6.92,4.93-1.78,7.57-3.28,15-1.92,22.98.85,4.97-.31,10.27-.4,15.42-.17,9.93-.14,19.86-.32,29.79-.14,7.87-.46,15.73-.74,23.6-.43,12.09-.78,24.19-1.35,36.28-1.27,26.82-2.72,53.63-3.91,80.46-.19,4.29.93,8.64.82,12.94-.2,8.34-1.38,16.67-1.22,24.99.51,26.48,1.39,52.96,2.34,79.43.08,2.13,1.19,5.26,2.8,6.14,8.99,4.91,8.89,13.83,9.36,21.83.82,14.07.37,28.22.43,42.34,0,1.38.07,2.81-.2,4.15-3.18,15.97-6.58,31.89-9.53,47.9-.85,4.6-3.33,6.08-7.37,5.98-11.72-.29-23.43-.83-35.15-.89-1.56,0-4.2,1.96-4.52,3.42-2.31,10.56-7.75,20.6-5.63,31.94.17.94.17,2.31-.38,2.91-2.21,2.43-4.67,4.63-7.04,6.91-1.62-2.93-4.3-5.74-4.64-8.81-.97-8.76-.7-17.65-1.56-26.43-.2-2.05-2.54-4.73-4.56-5.62-6.78-3.01-13.88-7.44-20.83-7.39-8.77.06-9.73-5.43-12.31-10.67-.26-.53-.62-1.05-1.06-1.44-15.74-13.99-25.46-31.99-33.08-51.14-3.99-10.04-7.97-20.51-9.23-31.1-1.36-11.39-5.63-22.87-1.74-34.73.93-2.82-.31-6.31-.31-9.49-.05-27.28-.8-54.59.14-81.84,1.07-31.05,3.84-62.04,5.51-93.08.9-16.72.92-33.49,1.52-50.24.45-12.7,1.46-25.39,1.72-38.1.25-11.94-.42-23.91-.21-35.85.22-12.46.64-24.94,1.63-37.36.9-11.28,2.37-22.55,4.16-33.73,4.34-27.18,16.23-50.5,37.59-68.14,17.68-14.6,38.47-21.43,61.46-21.39,13.56.02,27.13-.09,40.69-.06,4.11.01,7.35-.67,6.54-6.72,3.44,8.49,10.49,7.21,16.67,7.6,8.56.54,17.14.72,25.71,1.05,6.58.26,8.4-1.2,8.33-7.8-.09-9.17-.59-18.34-.95-27.5-.14-3.72-1.39-6.11-5.87-5.39-9.81,1.58-19.63,3.2-29.51,4.34-5.8.67-9.9,2.63-11.01,8.88-.16.89-1.37,1.6-2.09,2.4-.47-.28-.93-.56-1.4-.83.86-1.66,1.72-3.32,2.82-5.45-12.77-8.25-8.11-21.36-8.27-33.25-.15-11.52.53-23.09-.36-34.54-1.28-16.45-.47-32.83,7.58-47.09,7.75-13.74,3.84-27.27,3.62-41.04-.13-8.06.02-16.12.02-24.19,0-9.52.18-19.04-.06-28.55-.22-8.55-1.22-17.09-1.31-25.65-.09-9,.57-18,.78-27.01.28-11.63.25-23.27.7-34.89.44-11.39,1.91-22.76,1.73-34.13-.08-5.02,2.69-10.26-1.53-15.71-2.09-2.7-.14-8.55.05-12.97.05-1.17.77-2.43.51-3.47-3.42-13.5-2.48-27.58-5.58-41.09-1.33-5.79-2.76-11.71-5.29-17.02-1.12-2.35-4.92-3.95-7.82-4.81-3.76-1.12-7.83-1.22-11.77-1.67-3.46-.39-5.35,1.14-5.29,4.73.28,14.8.63,29.6.86,44.4.14,8.95,0,17.9.19,26.85.21,9.92.97,19.84.89,29.75-.08,9.63-.95,19.25-1.38,28.87-.11,2.44.26,4.89.2,7.33-.08,3.17-.33,6.33-.58,9.49-.09,1.14-.6,2.28-.58,3.41.18,9.64.63,19.28.64,28.93.05,32.23-.05,64.47-.1,96.7,0,6.36-.49,12.76,0,19.08.71,9.33.93,18.38,7.3,26.92,3.68,4.93,2.59,13.6,3.18,20.62.92,10.95,1.56,21.92,2.05,32.89.17,3.93-.69,7.89-.66,11.84.07,8.47.55,16.94.59,25.41.02,4.52-1.66,6.34-7.08,5.9-9.17-.73-18.47.46-27.69.19-7.49-.22-14.94-1.56-22.43-2.07-4.92-.33-9.87-.01-14.81-.07-11.72-.14-23.51.39-35.11-.81-5.5-.57-10.27.11-15.49.98-3.24.54-6.97-2.33-10.57-3.32-5.54-1.52-3.63-5.98-3.78-9.4-.86-19.9-2.26-39.82-2.05-59.72.18-17.84,2.35-35.64,3.34-53.48.72-12.87,1.32-25.76,1.35-38.65.11-38.51.17-77.02-.25-115.52-.26-23.71-2.11-47.4-2.04-71.1.11-35.11,1.39-70.22,1.94-105.34.11-7.45-2.28-15.22-.8-22.27,1.2-5.71-2.32-10.99.91-17.03,1.9-3.56-.66-10.06-2.35-14.84-2.02-5.72,1.79-8.7,4.69-11.77,1.29-1.37,4.75-.94,7.21-.86,1.45.05,2.96,1.62,4.3,1.44,7-.93,13.94-2.29,20.93-3.31,3.16-.46,6.38-.47,10.98-.78,1.91,3.81,4.99,4.3,9.17.52,1.02-.92,3.62-.37,5.42-.08,1.9.31,3.73,1.61,5.59,1.62,8.54.04,17.08-.15,25.61-.39,3.49-.1,5.49-1.72,5.36-5.63" />
      <path class="cls-1"
        d="M1002.85,762.56c-.35,1.25-1,2.5-1.02,3.76-.33,21.9-.67,43.8-.81,65.7-.05,8.63.17,8.96-8.56,9.13-38.48.77-76.97,1.27-115.45,2.07-5.27.11-6.92-1.82-7.08-6.87-1.28-40.24-3.09-80.47-4.08-120.72-.92-37.67-.75-75.37-1.58-113.05-1.15-52.65-2.92-105.29-4.13-157.95-.59-25.93-.29-51.88-.84-77.81-.2-9.66-1.64-19.29-2.54-28.92-.4-4.3-1.23-8.59-1.21-12.88.02-6.42,7.08-10.5,16.33-9.92,9.29.58,18.59,1.51,27.88,1.37,3.5-.05,6.97-2.67,10.63-4.19.51,3.44,3.3,4.12,8.37,3.95,22.6-.76,45.23-.86,67.85-.75,7.75.04,15.48,1.68,23.25,2.06,8.96.43,17.97-.06,26.92.45,17.21.99,34.01,4.13,49.82,11.33,3.41,1.55,6.71,3.6,9.62,5.97,14.51,11.8,27.43,25.23,33.8,43.11,4.84,13.59,7.71,27.88,11.29,41.9.35,1.37.14,3.68-.76,4.46-8.8,7.66-4.23,17.32-4.23,26.29,10.01,12.35,3.72,27.09,5.83,40.61,1.22,7.81,1.51,15.8,1.86,23.72.88,19.64,1.83,39.29,2.2,58.95.14,7.28-1.92,14.6-1.86,21.89.12,13.73,1.06,27.45,1.67,41.18.1,2.18.46,4.39.24,6.54-1.34,13.08-3.04,26.12-4.14,39.21-.53,6.28-.07,12.66.04,18.99.37,21.57-.29,43.11-6.49,63.91-2.86,9.61-7.93,18.32-13.3,27.09-8.05,13.14-19.51,21.12-31.61,29.23-14.05,9.43-29.94,12.82-46.19,15.06-7.09.98-14.32,1-21.49,1.21-7.19.22-7.06-.4-7.88-7.78-2.32-20.95-5.1-41.86-7.85-62.76-.27-2.07-1.67-3.99-2.55-5.98-.66.15-1.31.29-1.97.44ZM988.5,419.98c-5.54,6.82-5.68,13.6-5.51,20.22.32,12.71,1.47,25.41,1.6,38.11.41,42.05.34,84.1.82,126.15.17,15.28,1.49,30.55,2.07,45.83.85,22.06.86,44.19,2.62,66.17.59,7.34-1.97,18.52,10.48,19.35.75,3.3,1.32,5.82,2.24,9.86,3.68-6.97,6.82-12.22,9.28-17.77,2.37-5.36,4.69-10.91,5.82-16.61.9-4.57-.17-9.5-.08-14.27.17-9.73.95-19.46.69-29.17-.34-12.52-1.6-25.01-2.19-37.53-1.53-32.24-3.27-64.48-4.22-96.74-.7-23.7-.26-47.42-.41-71.14-.02-2.56-.55-5.12-.78-7.69-.24-2.69-1.03-5.54-.46-8.06,1.36-5.97,1.76-11.63-2.04-17.26-1.13,3.69-2.21,7.17-3.6,11.69-3.65-7.2-.74-15.1-5.19-20.8-.67.02-1.34.04-2,.06-.9,13.15-1.79,26.31-2.69,39.46l-2.63.12c1.14-13.2.66-26.15-3.82-40.01Z" />
      <path class="cls-1"
        d="M687.22,1470.6c-1.33,1.49-2.4,2.69-3.47,3.89-.79-1.16-1.51-2.37-2.39-3.46-.65-.81-1.64-2.16-2.21-2.04-1.4.3-3.33,1.01-3.83,2.1-1.05,2.29-1.13,5-1.96,7.42-.71,2.05-1.92,3.93-2.9,5.88-1.16-1.74-2.76-3.33-3.38-5.24-1.27-3.88-2.01-7.93-3.12-12.53-1.71.97-3.35,1.36-3.54,2.1-1.82,7.38-8.11,6.27-12.98,6.23-4.76-.05-5.35,2.43-5.72,5.77-.34,3.06-.44,6.15-.65,9.22-.5.03-1,.07-1.5.1-.94-7.91-1.89-15.83-2.83-23.74-.85,0-1.71,0-2.56.01-.59,4.02-1.17,8.05-2.04,14.01-2.78-4.3-4.55-7.05-6.7-10.37-1.45,1.73-2.46,2.65-3.11,3.77-3.38,5.85-3.66,5.9-8.62,1.22-.55-.52-1.3-1.19-1.94-1.18-6.05.07-12.11.23-18.16.46-1.17.04-2.31.59-3.49.75-12.83,1.77-15.45-.83-15.39-13.67.05-11.28-.79-22.56-.92-33.85-.04-3.29,1.49-6.6,1.44-9.88-.17-12.87-.83-25.73-1.01-38.6-.09-6.56.33-13.15.75-19.7.81-12.68,1.83-25.34,2.66-38.02.11-1.73.23-3.82-.59-5.19-2.69-4.53-4.84-8.77-.36-13.5.54-.57.27-2.41-.21-3.37-4.73-9.56-1.82-18.95.5-28.36.19-.77.79-1.5.78-2.24-.1-9.44-.26-18.87-.43-28.31-.11-6.69-.26-13.39-.37-20.08-.28-16.75-.81-33.5-.76-50.24.04-14.49.85-28.98,1.14-43.48.37-18.1.67-36.21.79-54.31.08-12.3-.35-24.59-.25-36.89.04-4.32,2.76-8.81-1.39-12.69-.22-.21.17-1.11.32-1.67,2.75-10.61-1.15-14.85-12.62-14.72-10.71.12-21.42-.34-32.13-.75-7.34-.28-14.68-.85-22-1.44-3.87-.31-5.44-2.73-5.37-6.53.4-21.74.67-43.48,1.15-65.21.28-12.96.48-25.93,1.42-38.85.82-11.24,1.67-11.72,12.74-11.51,43.47.84,86.93,1.9,130.4,2.63,19.9.33,39.8.05,59.7.15,2.75.02,5.56.47,8.25,1.11,4.78,1.15,6.51,3.92,5.93,9.22-.95,8.69-1.1,17.49-1.1,26.24,0,17.47.35,34.95.55,52.42.15,13.37.56,26.75.39,40.12-.19,15.45-1.17,30.88-1.32,46.33-.82,84-1.51,168.01-2.21,252.01-.31,37.91-.58,75.83-.78,113.74-.07,13.32.11,26.64.19,39.95.05,8.11-6.17,12.51-14.53,10.51-2.16-.51-4.85-.89-6.75-.07-9.6,4.15-9.68,4.23-11.51-5.69ZM613.44,1463.75c-2.18-2.19-3.57-4.72-4.85-4.67-5.33.21-6.04,4.59-5.71,8.6.13,1.58,2.6,2.97,4.01,4.45,2-2.55,4-5.11,6.56-8.37Z" />
      <path class="cls-1"
        d="M325.3,293.09c-.68,1.15-1.92,1.97-2.6,3.12-3.24,5.48-2.07,7.48,3.77,8.21-1.84,1.65-4.53,3.41-6.22,5.86-.74,1.07.04,4.01,1.11,5.24.82.93,3.77,1.3,4.78.56,10.26-7.49,21.64-4.46,32.78-3.95,24.3,1.11,48.59,2.26,72.9,3.15,4.86.18,6.04,2.34,5.95,6.71-.86,41.27-1.61,82.54-2.4,123.81-.26,13.54-.84,27.09-.69,40.62.07,6.53,1.1,13.14,2.56,19.52.44,1.91,3.75,4.45,5.8,4.5,14.22.36,28.45.27,42.67-.09,1.58-.04,3.2-2.59,4.62-4.15,1.16-1.28,2.05-2.82,3.06-4.24l1.5.96c-.58,2.18-1.16,4.35-1.86,7.01,5.18,1.33,9.82,2.1,12.4-1.58,6.53,1.57,12.47,3,18.41,4.43.22-.51.44-1.02.66-1.53.48,1.41.96,2.81,1.45,4.23.61-.19,1.02-.22,1.32-.42,1.29-.85,2.55-1.75,3.82-2.62.92,1.37,2.59,2.72,2.63,4.11.3,10.74.21,21.48.37,32.23.14,9.31.62,18.62.62,27.93,0,12.01-.14,24.03-.62,36.03-.16,4.06-5.05,7.3-2.55,12.13.11.22-1.23,1.4-2.04,1.86-3.33,1.87-6.71,3.64-10.15,5.47.23-2.15.53-4.92.77-7.09-3.3.88-5.75,1.92-8.27,2.15-9.75.88-19.51,1.58-29.28,2.13-1.66.09-3.37-.93-5.08-1.38-5.46-1.43-9.47-.52-10.77,6.2,0-1.12.44-2.57-.1-3.28-1.03-1.35-2.62-2.28-3.97-3.39-.83,1.3-2.3,2.57-2.37,3.91-.27,5.53-.11,11.09-.95,16.93-.38-2.22-.98-4.43-1.09-6.66-.15-2.78.7-5.75,0-8.32-.56-2.05-2.5-4.6-4.38-5.21-3.12-1.01-6.7-.86-10.07-.79-4.01.08-5.43,2.88-5.57,6.46-.73,19.63-1.86,39.27-2.01,58.9-.22,28.3.25,56.62.51,84.92.1,10.74.8,21.49.57,32.23-.17,7.54-1.31,15.07-2.3,22.56-.46,3.49-2.22,5.13-6.48,5.08-25.32-.3-50.65.07-75.97-.26-10.13-.13-20.31-1.09-30.35-2.49-4.36-.61-9.41-2.37-12.29-5.38-2.2-2.3-2.02-7.39-2.01-11.24.15-47.07.68-94.15.67-141.22-.02-46.49-.8-92.97-.78-139.46.01-31.92.6-63.85,1.35-95.77.73-30.87,2.79-61.74,2.67-92.6-.06-14.87,2.89-29.06,4.63-43.54" />
      <path class="cls-1"
        d="M356.36,1488.83c-.25-.7-.79-1.45-.7-2.1.95-6.74-.71-11.48-8.21-13.32-1.54-.38-3.02-4.12-3.19-6.42-.55-7.15-.52-14.35-.61-21.53-.32-25.32-.7-50.64-.84-75.97-.07-12.36.53-24.73.42-37.09-.09-9.76-.74-19.51-1.31-29.26-.11-1.92-.96-3.81-1.57-5.69-1.46-4.45-4.12-8.84-.11-13.4.55-.63.51-1.9.49-2.88-.18-12.5-.84-25-.52-37.49.53-20.69,1.81-41.37,2.55-62.05.77-21.52,1.54-43.05,1.82-64.58.27-21.32.04-42.66-.16-63.99-.28-29.52-1.06-59.04-1-88.56.05-23.5,1.04-47,1.59-70.5.06-2.75,0-5.5,0-9.13,10.73-.4,21.42-1.03,32.11-1.15,32.51-.34,65.02-.47,97.52-.7,11.49-.08,11.58-.11,11.97,11.29.63,18.53,1.21,37.06,1.63,55.59.44,19.3.96,38.61.91,57.91-.09,37.06-.71,74.12-.82,111.18-.09,27.48.52,54.97.36,82.46-.16,27.69-1,55.37-1.31,83.05-.36,31.5-.52,63.01-.66,94.52-.13,28.44-.12,56.89-.16,85.33,0,6.25-1.66,8.19-8.19,8.27-15.26.2-30.54-.15-45.79.3-16.89.5-33.77,1.7-50.65,2.46-5.31.24-10.64.14-15.96.02-5.4-.12-8.47,1.56-7.32,7.74.33,1.77-.52,3.76-.82,5.64-.48,0-.97,0-1.45,0Z" />
      <path class="cls-1"
        d="M1037.69,1472.65c-1.58.28-3.48.91-5.37.89-15.52-.21-31.03-.64-46.55-.8-10.74-.11-21.48.08-32.21.23-.86.01-2.3.62-2.49,1.25-2.17,7.41-9.72,12.5-8.6,21.52.42,3.4-1.85,7.14-4.14,10.53-3.7-8.9-1.89-17.76-1.55-26.72-.87,1.56-1.74,3.12-3.54,6.36-.92-3.73-1.19-5.95-2.04-7.91-.77-1.79-2.16-3.32-3.27-4.97-1.01,1.78-2.4,3.45-2.91,5.35-.49,1.86-.08,3.96-.07,5.95.1,16.88.2,33.76.29,50.64.02,3.54,0,7.07-.88,10.59-3.02-25.59,1.12-51.56-3.75-76.95-1.03-.11-2.06-.21-3.09-.32-.68,3.56-1.88,7.11-1.94,10.68-.29,16.54.09,33.09-.47,49.62-.55,16.41-1.93,32.78-4.37,49.85-.67-1.99-1.95-3.98-1.92-5.95.28-15.35.98-30.69,1.21-46.04.27-17.93.6-35.88.09-53.8-.21-7.22-2.93-14.33-3.89-21.57-.67-5.06-.06-10.28-.39-15.41-1.14-17.7-2.73-35.37-3.57-53.08-.39-8.32.77-16.7.82-25.06.11-21.49.31-42.99-.13-64.47-.76-37.16-14.78-71.58-22.97-107.19-5.49-23.89-12.21-47.49-18.35-71.22-4.04-15.61-8.51-31.13-11.93-46.87-3.82-17.62-6.27-35.55-10.05-53.18-3.67-17.12-8.26-34.05-12.47-51.05-4.64-18.73-9.23-37.47-14.03-56.16-1.08-4.2-2.65-8.33-4.52-12.24-2.89-6.07-1.97-8.42,4.87-9.12,7.13-.73,14.31-1.05,21.48-1.25,21.12-.6,42.25-1.17,63.37-1.52,13.32-.22,26.64.09,39.96-.1,5.3-.07,8.8,1.48,9.93,7.12,2.98,14.83,6.61,29.54,9.08,44.45,5.78,34.78,10.98,69.65,16.53,104.47,3.15,19.81,6.71,39.56,9.75,59.38,3.55,23.2,6.63,46.47,10.09,69.68,2.93,19.63,5.96,39.26,9.21,58.84,4.07,24.51,8.17,49.02,12.71,73.45,3.47,18.68,8.36,37.11,11.27,55.86,2.77,17.85,3.63,35.99,5.63,53.97.86,7.7,2.58,15.29,3.76,22.96.51,3.32.64,6.69.92,10.04.34,3.91.92,7.82.9,11.73-.02,3.3-.91,6.59-1.09,9.9-.12,2.16.34,4.35.65,7.68Z" />
      <path class="cls-1"
        d="M709.14,314.19c21.26,0,42.52.12,63.77-.08,5.52-.05,8.05,1.51,8.99,7.45,2.91,18.37,7.11,36.54,9.75,54.95,2.53,17.67,3.51,35.56,5.61,53.29,1.66,13.99,4.23,27.88,5.98,41.86,1.61,12.83,2.59,25.74,3.96,38.6,1.84,17.23,3.73,34.45,5.69,51.66,2.64,23.17,5.19,46.36,8.11,69.5,2.77,21.94,6.22,43.79,8.9,65.74,5.34,43.74,10.41,87.51,15.48,131.27,1.24,10.7-.46,11.89-11.29,11.46-23.27-.91-46.56-1.3-69.83-2.18-10.14-.38-20.27-1.3-30.36-2.39-1.39-.15-3.49-2.6-3.62-4.12-2.2-25.21-4.05-50.45-6.17-75.66-1.63-19.46-3.66-38.89-5.27-58.36-1.18-14.29-1.74-28.62-2.96-42.91-1.56-18.22-3.51-36.4-5.28-54.59-1.81-18.64-3.68-37.27-5.38-55.93-2.75-30.15-5.63-60.29-7.98-90.47-2.49-32-4.65-64.03-6.47-96.08-.68-12.1-.18-24.29.14-36.42.19-7.34,1.45-8.2,8.64-8.1,3.19.05,6.38,0,9.57,0,0,.5,0,.99,0,1.49Z" />
      <path class="cls-1"
        d="M639.72,851.92c-4.99-1.71-5.39-3.5-2.74-13.15-5.34-.4-10.53-1.09-15.72-1.12-22.55-.14-45.09-.09-67.64-.1-6.4,0-6.26-.18-4.65-6.39,1.34-5.16,1.88-10.54,2.49-15.86,1.49-12.83,2.78-25.69,4.24-38.53,1.27-11.24,2.71-22.46,3.95-33.7,1.52-13.73,2.6-27.53,4.47-41.21,1.82-13.35,4.48-26.59,6.61-39.9,2.89-18.03,5.66-36.07,8.45-54.12,3.54-22.96,7.19-45.9,10.49-68.89,1.3-9.05,1.46-18.27,2.72-27.33,3.19-22.87,6.71-45.7,10.1-68.54,6.45-5.25,1.69-11.99,2.48-18,.86-6.62,2.46-13.14,3.45-19.74,2.66-17.68,5.23-35.38,7.73-53.09,1.48-10.44,3.02-20.88,4.01-31.37.42-4.39,2.2-7.01,6.33-7.19,15.12-.66,30.25-1.22,45.37-1.19,1.7,0,4.53,3.79,4.88,6.12,1.36,9.02,2.09,18.15,2.76,27.26,2.41,33.13,5.38,66.24,6.81,99.42,1.08,25.03.74,50.17-.09,75.23-.58,17.44-2.92,34.84-4.71,52.23-1.58,15.39-3.94,30.71-5.13,46.12-1.14,14.86-1.34,29.79-1.56,44.7-.02,1.18,2.98,3.3,4.71,3.45,6.29.54,12.69-.03,18.92.8,2.24.3,5.28,3.05,5.9,5.25,1.21,4.32.96,9.04,1.33,13.59,1.98,24.61,3.99,49.22,5.89,73.84.2,2.54-.37,5.13-.45,7.7-.12,4.06-2.73,4.84-6.07,4.87-12.44.12-24.89.43-37.33.32-4.06-.04-5.94,1.68-6.55,5.31-.29,1.76-.64,3.64-.33,5.35,2.44,13.44-.79,26.48-2.6,39.62-.11.79-.66,1.71-.41,2.33,3.93,9.53-2.81,10.86-9.29,11.47-7.64.71-8.54,5.6-8.54,11.56,0,.93-.19,1.87-.3,2.88Z" />
      <path class="cls-1"
        d="M319.42,1201.45c4.62,11.74,1.69,24.62,1.99,37.13.9,37.77.28,75.58,1.37,113.34.47,16.44-2.66,32.01-7.91,47.01-6.83,19.51-17.75,37.31-32.91,51.3-7.89,7.29-18.86,11.82-29.13,15.83-23.88,9.32-49.09,9.71-74.29,8.6-11.22-.49-13.92-3.97-13.44-15.49.86-20.68,1.91-41.35,2.57-62.03.24-7.71-1.67-15.7-.24-23.11,1.23-6.37-1.84-14.87,7.18-19.08,2.33-1.08,3.61-6.06,3.96-9.4.76-7.32.46-14.73.87-22.1.85-15.11,1.95-30.21,2.81-45.33.52-9.29.94-18.6,1.1-27.91.2-11.71-.35-23.44.3-35.12.3-5.45,2.14-10.46-.97-15.97-1.11-1.96,1.45-5.04,5.61-4.83,15.67.78,31.37,1.22,47.06,1.57,20.84.46,41.68.55,62.52,1.18,5.42.16,11.78-1.42,15.52,5.03.34.59,3.25-.31,6.05-.64Z" />
      <path class="cls-1"
        d="M1045.8,1405.71c-2.07-9.63-4.31-19.23-6.16-28.89-2.55-13.26-5.21-26.53-7.11-39.89-4-28.14-7.39-56.37-11.37-84.52-.88-6.2-3.31-12.17-4.72-18.31-1.64-7.16-3.2-14.36-4.36-21.61-6.28-39.29-12.43-78.6-18.61-117.9-2.62-16.68-5.54-33.33-7.65-50.07-.65-5.17.49-10.71,1.59-15.92,3.56-16.95,8.1-33.72,11.09-50.77,3.78-21.58,6.4-43.37,9.54-65.07.66-4.54,1.37-9.06,2.07-13.59,1.35-8.75,6.74-14.56,15.61-15.4,8.3-.79,16.7-.43,25.04-.82,8.73-.41,17.55-.47,26.15-1.84,18.8-3.01,37.35.11,55.98,1.38,3.72.25,5.1,2.54,4.3,6.27-4.45,20.83-8.49,41.75-13.34,62.48-4.91,20.94-10.83,41.64-15.89,62.55-4.73,19.54-8.56,39.3-13.4,58.8-8.01,32.23-16.57,64.33-24.79,96.51-5.21,20.41-10.11,40.89-15.38,61.28-2.08,8.05-4.81,15.92-7.2,23.89-.4,1.32-.89,2.72-.84,4.06.62,18.52,1.46,37.03,1.98,55.55.58,20.72.95,41.45,1.27,62.18.11,7.37-.12,14.75-.36,22.13-.08,2.46-.66,4.9-1.02,7.35-.8.06-1.59.12-2.39.18Z" />
      <path class="cls-1"
        d="M517.91,837.03c-21.69,0-43.37-.09-65.06.06-6.07.04-8-2.69-7.8-8.43.65-19.08,1.06-38.17,1.53-57.25.27-10.91.73-21.83.58-32.73-.07-5.19,1.49-8.1,6.85-8.11,11.24-.02,22.49.07,33.73.13.39,0,.79.19,1.18.17,9.11-.42,18.21-1.15,27.32-1.16,4.89,0,9.97.66,14.57,2.2,1.57.53,2.66,4.64,2.72,7.14.28,11.94.13,23.88.13,35.82,0,18.08,0,36.15.02,54.23,0,7.68-.81,8.49-8.6,8.42-2.39-.02-4.78,0-7.17,0,0-.16,0-.32,0-.49Z" />
      <path class="cls-1"
        d="M482.27,426.45c-.32-1.28-.74-2.96-1.16-4.65-.49-.19-.99-.38-1.48-.57-.82,1.79-2.37,3.62-2.31,5.38.14,3.85-1.22,5.23-4.64,4.57.14-2.76,1.28-7.35.25-7.91-4.98-2.7-10.56-4.31-17.29-6.81.59,9.57,1.07,17.19,1.61,25.93-1.36-1.43-2.54-2.09-2.63-2.87-1.19-9.82-2.71-19.64-3.19-29.5-.78-16.12-.94-32.28-1.22-48.42-.22-12.91-.34-25.83-.26-38.75.06-9.45,1.03-10.86,10.2-10.41,13.65.66,27.25,2.39,40.89,3.48,8.74.7,17.5,1.1,26.26,1.52,4.75.23,5.7,1.88,5.68,7.08-.03,13.27,1.2,26.58,2.53,39.8,1.37,13.62,3.78,27.14,5.13,40.77.92,9.23-2.22,16.91-9.58,20.09-9.96-.38-18.25-3.19-24.56,1.88-7.33-1.58-13.64-3.14-20.05-4.12-1.12-.17-2.62,2.14-4.18,3.51Z" />
      <path class="cls-1"
        d="M778.34,1033.41c-1.11-6.14-2.22-12.29-3.5-19.31-1.94,1.59-3.13,2.56-4.17,3.41-2.06-3.36-3.59-6.61-5.83-9.28-2.15-2.57-5.02-2.41-5.61,1.29-.77,4.82-.82,9.78-.88,14.68-.07,5.56.1,11.13.34,16.69.59,14.06,1.29,28.12,1.91,42.17.04.88-.13,1.76-.2,2.64-.52.11-1.03.22-1.55.33-1.05-3.79-2.51-7.51-3.08-11.37-1.25-8.45-2.46-16.94-2.93-25.46-.5-9.28-.1-18.6-.16-27.9-.03-3.87-.15-7.75-.43-11.6-.06-.81-1.22-2.3-1.54-2.22-1.92.52-3.73,1.4-6,2.34-.44-1.55-1-3.49-1.56-5.43-8.4,1.95-8.47,1.69-8.23-6.78.62-22.32,1.04-44.64,1.49-66.96.27-13.15.54-26.3.62-39.45.02-4.25,1.69-6.3,5.98-6.28,16.35.08,32.69.2,49.04.12,5.63-.03,7.39,2.04,7.21,7.93-.68,21.93-.82,43.87-.91,65.81-.03,6.95,1.36,13.94.93,20.85-.47,7.5-2.3,14.91-3.58,22.36-.1.56-.36,1.33-.78,1.56-8.23,4.56-5.03,11.66-4.68,18.54.62,11.93.43,23.91.33,35.87-.09,11.54-.45,23.08-.79,34.62-.04,1.2-.74,2.38-2.57,3.45-.12-2.24-.38-4.49-.35-6.73.27-21.12.6-42.24.88-63.36.04-2.99.29-6.09-.39-8.94-.41-1.72-2.42-3.07-3.7-4.58-1.03,1.64-2.84,3.23-2.92,4.91-.22,4.36.37,8.76.53,13.15.03.88-.43,1.78-.67,2.67-.75.09-1.49.18-2.24.27Z" />
      <path class="cls-1"
        d="M476.92,447.58v36.68c-.8-.03-1.6-.06-2.4-.1-3.53-12.43.06-24.63,2.4-36.58Z" />
      <path class="cls-1"
        d="M456.04,698.39c.64-12.69,1.22-24.16,1.87-37.02,4.47,6.23,3.15,31.91-1.87,37.02Z" />
      <path class="cls-1"
        d="M529.02,455.45c.08-7.75-4.78-15.78,1.8-24.54.07,9.29,2.63,17.16-1.8,24.54Z" />
      <path class="cls-1" d="M527.73,486.13v-21.32h1.66v21.38l-1.66-.05Z" />
      <path class="cls-1" d="M989.16,935.49v-22.65c.37-.02.74-.04,1.1-.05v22.71c-.37,0-.74,0-1.1,0Z" />
      <path class="cls-1"
        d="M516.7,446.45v-12.12c1.44.32,2.78.61,4.12.91-.86,3.82-1.72,7.63-2.58,11.45l-1.53-.24Z" />
      <path class="cls-1"
        d="M769.29,1037.36c-.25-5.15-.5-10.3-.75-15.45.85-.05,1.71-.11,2.56-.16.23,5.12.46,10.25.68,15.37-.83.08-1.66.16-2.49.24Z" />
      <path class="cls-1"
        d="M55.1,1496.8c-1.32-6.67-2.33-11.8-3.47-17.56,4.89,3.53,5.52,6.8,3.47,17.56Z" />
      <path class="cls-1"
        d="M479.85,439.69c-3.32-3.43-1.5-5.73.84-7.71.71-.61,2.07-.45,3.13-.65-.09,1.38.19,2.95-.37,4.11-.71,1.45-2.11,2.56-3.6,4.26Z" />
      <path class="cls-1"
        d="M242.78,1175.79c-.31,3.53-.62,7.06-.93,10.58-5.06-4.22-2.53-7.45.93-10.58Z" />
      <path class="cls-1"
        d="M478.26,495.93c-4.2-1.47-6.56-3.87-3.87-8.75,1.44,3.27,2.65,6.01,3.87,8.75Z" />
      <path class="cls-1"
        d="M92.4,307.58c.23-2.81.45-5.62.68-8.43.51.03,1.02.06,1.53.09v8.44c-.74-.03-1.48-.06-2.21-.1Z" />
      <path class="cls-1"
        d="M243.3,1157.93c-2.75-2.68-4.44-3.8-5.35-5.37-.79-1.37-.7-3.25-1.01-4.91.67-.2,1.35-.39,2.02-.59,1.27,3.19,2.54,6.37,4.34,10.87Z" />
      <path class="cls-2"
        d="M613.44,1463.75c-2.56,3.27-4.56,5.82-6.56,8.37-1.4-1.48-3.88-2.87-4.01-4.45-.33-4.01.38-8.39,5.71-8.6,1.28-.05,2.67,2.48,4.85,4.67Z" />
      <g id="The_Walking" data-name="The Walking">
        <path class="cls-1"
          d="M32.95,100.58h45.48c1.98,21.49,3.93,42.73,5.89,63.96.13,0,.26-.02.39-.03,2-21.17,4-42.34,6.02-63.71h39.48c2,20.83,4,41.67,6,62.5.19-.01.38-.03.57-.04,1.2-13.1,2.42-26.21,3.6-39.31.62-6.84,1.1-13.7,1.85-20.52.11-1.01,1.33-2.7,2.06-2.72,11.8-.17,23.6-.12,35.86-.12-.99,8.63-1.88,16.78-2.87,24.92-2.12,17.45-4.28,34.89-6.43,52.33-2.4,19.49-4.84,38.97-7.22,58.46-1.49,12.27-2.99,24.54-4.28,36.83-.36,3.4-1.37,4.48-5.07,4.39-11.8-.3-23.62-.07-35.43.09-3.18.04-4.7-.46-5.08-4.35-1.99-20.29-4.44-40.53-7.52-60.85-2.39,21.53-4.78,43.06-7.24,65.16h-26.87c-3.3,0-6.61.05-9.91-.01-9.32-.18-6.95,1.46-8.47-7.92-.44-2.74-3.47-28.16-4.2-34.1-2.38-19.48-4.87-38.95-7.04-58.45-2.16-19.45-5.03-38.81-7.12-58.27-.59-5.55-1.62-11.06-2.45-16.59,0-.55,0-1.1,0-1.65Z" />
        <path class="cls-1"
          d="M633.57,278.97c-1.28-.37-2.55-.8-3.85-1.11-15.98-3.86-25.01-15.51-25.04-32.75-.07-37.44-.03-74.87,0-112.31,0-2.04.24-4.12.63-6.13,3.1-16.4,11.07-25.06,27.72-26.83,12.63-1.34,25.66-1.5,38.26-.04,18.6,2.17,27.77,12.81,28.93,31.63.67,10.83.18,21.74.21,32.61,0,1.22,0,2.44,0,4.09h-42.9c0-9.45.01-18.77,0-28.08,0-4.64-1.12-5.62-5.56-5.35-2.85.18-4.13,1.42-4.13,4.39.05,33.17.06,66.34,0,99.51,0,4.01,2.07,4.7,5.49,4.68,3.44-.02,4.55-1.36,4.45-4.71-.2-6.86-.22-13.73,0-20.59.12-3.78-.23-6.62-5.22-5.81v-34.55h48.3c.09,1.52.24,2.86.24,4.2.01,19.82.33,39.65-.17,59.45-.17,6.72-1.59,13.7-3.93,20-3.71,10.01-12.3,14.67-22.38,16.81-1.04.22-2.04.6-3.06.9h-38Z" />
        <path class="cls-1"
          d="M542.5,212.2c0,20.53-.1,40.89.09,61.24.03,3.41-1.05,4.25-4.18,4.18-9.34-.22-18.69-.3-28.03-.26-2.78.01-3.75-1.4-3.74-3.73,0-2.31.53-4.62.52-6.94-.18-36.09-.41-72.18-.62-108.26-.01-2.19.05-25.4-.03-28.84-.22-9.46-.08-18.94-.08-28.83h41.9c4.51,18.88,9.03,37.81,13.55,56.75l.78-.11v-56.58h35.72c.1,1.44.28,2.89.28,4.34.01,55.86-.02,111.73.09,167.59,0,3.78-.98,4.99-4.82,4.9-10.46-.24-20.92-.2-31.38,0-3.06.06-4.3-.95-4.98-3.89-4.6-19.76-9.36-39.48-14.09-59.2-.19-.77-.62-1.49-.99-2.35Z" />
        <path class="cls-1"
          d="M1023.36,100.58h3.95c17.34,0,34.68-.12,52.01.08,4.48.05,9.08.68,13.41,1.84,14.41,3.87,22.32,13.8,24.84,28.2.68,3.9.91,7.92.91,11.89.07,31.51.13,63.02-.05,94.52-.03,5.02-.74,10.19-2.09,15.02-4.31,15.43-16.96,24.71-34.3,25.06-18.43.38-36.86.21-55.29.43-3.1.04-3.95-.98-3.94-4.04.11-34.95.08-69.9.09-104.84,0-15.41.79-66.79.46-68.16ZM1066.79,136.37v105.11c7.15.76,8.51-.41,8.52-7.13.01-30.26.01-60.52,0-90.77,0-6.72-1.29-7.84-8.52-7.21Z" />
        <path class="cls-1"
          d="M398.14,100.85v67.53c.2.02.4.04.6.05,3.64-22.53,7.28-45.06,10.92-67.61h43.8c-3.76,19.53-7.47,38.77-11.18,58.02-1.48,7.68-3.69,15.3-4.27,23.05-.47,6.27.62,12.74,1.68,19.02,4.12,24.35,8.51,48.66,12.77,72.99.18,1.03.02,2.12.02,3.68-4.58,0-8.94,0-13.31,0-8.95,0-17.9-.18-26.84.09-3.57.11-4.67-1.15-5.12-4.53-2.7-20.24-5.61-40.45-9.1-60.63,0,12.74,0,25.48,0,38.22,0,7.71-.11,15.42.06,23.12.07,2.86-.8,3.82-3.71,3.79-11.96-.13-23.93-.17-35.9.02-3.4.05-4.11-1.2-4.1-4.33.1-29.45.06-58.9.06-88.35,0-26.42,0-52.85,0-79.27v-4.84h43.61Z" />
        <path class="cls-1"
          d="M735.2,277.57c0-21.08-.01-41.29,0-61.51.01-13.51,0-27.02.19-40.54.03-2.08.26-59.39.26-74.09,10.71,0,21.17.03,31.64-.04,1.57-.01,3.14-.8,4.69-.74,10.41.4,21-.11,31.19,1.66,15.53,2.69,24.93,13.76,26.92,29.37.55,4.35.83,8.76.84,13.14.07,30.55.11,61.1-.04,91.64-.02,4.76-.63,9.63-1.77,14.26-3.65,14.82-13.57,23.12-28.37,25.66-4.71.81-9.56,1.09-14.35,1.14-15.42.14-30.83.05-46.25.05h-4.94ZM778.96,136.8v104.28c7.48,1.12,8.47.3,8.47-6.69,0-23.38-.04-46.75.03-70.13.02-6.29.32-12.59.66-18.88.4-7.57-1.71-9.74-9.16-8.58Z" />
        <path class="cls-1"
          d="M194.39,100.77h55.96c7.72,58.75,15.43,117.38,23.19,176.41-1.56.15-2.75.37-3.93.37-11.57.03-23.13-.06-34.7.07-3.07.04-4.41-.76-4.56-4.1-.25-5.76-1.02-11.49-1.61-17.55h-17.99c-.64,6.91-1.27,13.84-1.95,21.17h-37.59c7.71-58.74,15.41-117.33,23.16-176.38ZM220.21,159.71c-.31-.02-.62-.04-.93-.06-.26,3.04-.52,6.08-.79,9.11-1.42,15.87-2.88,31.74-4.17,47.62-.07.89,1.13,2.63,1.87,2.71,2.95.32,5.94.13,9.24.13-1.78-20.25-3.5-39.88-5.22-59.51Z" />
        <path class="cls-1"
          d="M976.54,277.54c-.61-6.57-1.27-12.55-1.66-18.56-.16-2.41-.9-3.45-3.43-3.38-4.8.14-9.6.04-15.02.04-.52,5.92-1.28,11.6-1.41,17.28-.08,3.56-1.16,4.79-4.8,4.71-9.63-.22-19.27-.06-28.9-.09-1.34,0-2.68-.16-4.33-.26.93-7.56,1.76-14.74,2.7-21.92,2.38-18.1,23.51-152.08,23.77-154.37h52.54c1.15,8.57,2.34,17.36,3.51,26.15,2.37,17.82,4.75,35.64,7.09,53.47,2.34,17.83,4.65,35.66,6.97,53.5,1.73,13.34,3.42,26.68,5.21,40.02.25,1.87.43,3.39-2.05,3.4-13.19.02-26.39,0-40.19,0ZM971.08,218.98c-1.82-20.75-3.61-41.17-5.4-61.6-.19.01-.38.02-.57.03-1.78,20.44-3.57,40.89-5.37,61.56h11.34Z" />
        <path class="cls-1"
          d="M837.01,100.75h76.06c0,2.2,0,4.32,0,6.45,0,8.67-.18,17.34.09,26,.12,3.75-1.16,4.64-4.72,4.55-9.18-.24-18.37-.08-27.79-.08v31.5c3.75,0,7.54,0,11.33,0,5.51,0,11.02-.13,16.51.11,1.18.05,3.27,1.45,3.28,2.26.22,11.38.15,22.77.15,34.57h-31.14v33.97c1.39.08,2.85.24,4.31.24,8.4,0,16.79.04,25.19-.07,2.13-.03,3.4.27,3.38,2.81-.07,10.59.04,21.19-.14,31.78-.02.91-1.6,1.87-2.58,2.65-.34.27-1.07.06-1.62.06-22.85,0-45.7-.02-68.55.03-2.51,0-4.03-.18-4.02-3.45.09-57.11.07-114.21.08-171.32,0-.54.09-1.08.19-2.08Z" />
        <path class="cls-1"
          d="M277.24,100.72h43.28v139.49h29.67c0,7.59,0,14.56,0,21.53,0,4.13-.1,8.26.04,12.38.08,2.35-.46,3.51-3.15,3.49-18.58-.11-37.16,0-55.74-.22-3.39-.04-6.9,1.02-10.31-1.89-2.2-1.88-3.64-3.35-3.64-6.12-.06-23.93-.12-47.86-.14-71.79-.02-26.82,0-53.63,0-80.45,0-5.34,0-10.69,0-16.43Z" />
        <path class="cls-1"
          d="M457.02,100.8h43.35c0,4.28,0,8.36,0,12.44,0,53.13-.04,106.26.09,159.39,0,3.99-1.1,5.12-5.06,5.03-11.56-.26-23.13-.14-34.7-.05-2.65.02-3.93-.49-3.92-3.6.09-56.98.06-113.97.07-170.95,0-.66.1-1.32.17-2.26Z" />
        <path class="cls-1"
          d="M182.51.02c4.28,0,8.24.06,12.2-.02,2.52-.06,2.46,1.55,2.46,3.3-.02,6.88,0,13.76,0,20.63,0,1.48,0,2.97,0,4.72h9.48V9.04Q206.64.01,215.73.01c1.64,0,3.27,0,5.24,0v71.62h-14.21v-29.45h-9.41v29.35h-14.84V.02Z" />
        <path class="cls-1"
          d="M228.22,71.62V.35h29.37v12.81h-14.6v15.68h14.29v13h-14.29v16.81c4.26,0,8.35.07,12.43-.03,2.13-.05,2.97.74,2.9,2.89-.11,3.27-.03,6.54-.03,10.11h-30.07Z" />
        <path class="cls-1"
          d="M174.78.33v12.33c-.33.23-.43.36-.54.37-2.54.31-6.44-.25-7.3,1.12-1.33,2.1-.69,5.52-.69,8.38-.04,16.22-.02,32.45-.02,49.03h-14.55c0-1.48,0-2.94,0-4.39,0-16.24-.14-32.48.1-48.71.06-4.12-.92-5.93-5.2-5.22-1.03.17-2.14-.12-3.44-.21V.33h31.65Z" />
      </g>
    </g>
  </g>
</svg>