<?xml version="1.0" encoding="UTF-8"?>
<svg id="Capa_2" data-name="Capa 2" xmlns="http://www.w3.org/2000/svg" viewBox="0 0 1732.12 1438.35">
  <defs>
    <style>
      .cls-1 {
        fill: #d96d6d;
        stroke-width: 0px;
      }
    </style>
  </defs>
  <g id="Logos">
    <g id="The_Walking" data-name="The Walking">
      <path class="cls-1" d="M0,151.32h117.87c5.13,55.7,10.19,110.74,15.26,165.79.34-.02.68-.05,1.02-.07,5.19-54.87,10.38-109.74,15.61-165.12h102.32c5.18,53.99,10.37,108,15.55,162,.49-.04.99-.08,1.48-.11,3.12-33.96,6.28-67.92,9.34-101.89,1.6-17.73,2.85-35.5,4.78-53.2.29-2.61,3.46-7.01,5.34-7.04,30.58-.44,61.16-.31,92.94-.31-2.57,22.36-4.87,43.49-7.43,64.59-5.49,45.22-11.09,90.42-16.67,135.63-6.23,50.51-12.56,101.01-18.71,151.53-3.87,31.8-7.76,63.6-11.08,95.45-.92,8.82-3.54,11.62-13.15,11.38-30.59-.77-61.22-.18-91.84.23-8.25.11-12.18-1.19-13.17-11.28-5.16-52.59-11.5-105.06-19.48-157.72-6.2,55.81-12.4,111.61-18.76,168.9h-69.65c-8.56,0-17.13.14-25.69-.03-24.15-.48-18.02,3.79-21.97-20.54-1.15-7.1-9-73-10.88-88.38-6.18-50.49-12.63-100.95-18.25-151.5-5.61-50.41-13.05-100.59-18.45-151.03-1.54-14.4-4.21-28.67-6.36-43,0-1.43,0-2.85,0-4.28Z"/>
      <path class="cls-1" d="M1556.77,613.7c-3.32-.97-6.61-2.07-9.97-2.88-41.42-10.01-64.82-40.21-64.91-84.89-.18-97.03-.08-194.07.01-291.1,0-5.3.63-10.67,1.62-15.89,8.04-42.51,28.7-64.96,71.86-69.55,32.74-3.49,66.5-3.9,99.16-.09,48.22,5.62,71.97,33.21,74.99,81.97,1.74,28.08.46,56.34.54,84.52,0,3.17,0,6.34,0,10.61h-111.19c0-24.5.03-48.65-.01-72.79-.02-12.02-2.89-14.57-14.4-13.86-7.38.46-10.72,3.69-10.7,11.37.13,85.98.15,171.95-.01,257.93-.02,10.4,5.36,12.18,14.24,12.14,8.92-.04,11.79-3.51,11.54-12.21-.51-17.78-.57-35.6.01-53.37.32-9.79-.61-17.15-13.52-15.06v-89.56h125.18c.24,3.95.62,7.41.63,10.88.04,51.37.87,102.76-.44,154.1-.44,17.41-4.11,35.5-10.18,51.85-9.63,25.94-31.87,38.02-58.01,43.56-2.69.57-5.29,1.55-7.93,2.34h-98.5Z"/>
      <path class="cls-1" d="M1320.71,440.64c0,53.22-.25,105.98.24,158.73.08,8.85-2.72,11.01-10.83,10.83-24.21-.56-48.44-.77-72.66-.66-7.2.03-9.71-3.62-9.69-9.68.02-5.99,1.38-11.99,1.35-17.98-.46-93.54-1.05-187.08-1.6-280.61-.03-5.67.13-65.83-.09-74.74-.58-24.53-.2-49.08-.2-74.74h108.61c11.69,48.93,23.41,98.01,35.13,147.08l2.02-.29v-146.65h92.58c.25,3.73.73,7.49.73,11.25.04,144.8-.06,289.6.24,434.39.02,9.8-2.55,12.94-12.49,12.71-27.1-.62-54.23-.52-81.33-.02-7.94.15-11.13-2.47-12.91-10.09-11.93-51.21-24.26-102.32-36.53-153.45-.48-2.01-1.6-3.86-2.56-6.1Z"/>
      <path class="cls-1" d="M1301.98,638.31h17.87c78.34,0,156.69-.55,235.02.38,20.26.24,41.03,3.06,60.59,8.31,65.12,17.49,100.84,62.37,112.23,127.4,3.09,17.62,4.09,35.8,4.13,53.72.32,142.36.59,284.73-.24,427.09-.13,22.68-3.35,46.02-9.46,67.85-19.49,69.71-76.64,111.64-154.98,113.24-83.25,1.7-166.55.95-249.82,1.93-14.03.16-17.87-4.44-17.82-18.25.48-157.9.37-315.81.4-473.71.01-69.6,3.57-301.78,2.1-307.97ZM1498.25,800.01v474.92c32.3,3.45,38.46-1.85,38.47-32.21.05-136.71.05-273.42,0-410.14-.01-30.35-5.84-35.4-38.48-32.58Z"/>
      <path class="cls-1" d="M946.53,152.03v175.03c.52.05,1.03.09,1.55.14,9.43-58.39,18.87-116.79,28.32-175.25h113.53c-9.76,50.61-19.36,100.5-28.99,150.38-3.84,19.9-9.56,39.66-11.06,59.73-1.22,16.24,1.6,33.03,4.35,49.29,10.68,63.12,22.07,126.12,33.1,189.18.47,2.67.06,5.48.06,9.54-11.86,0-23.18,0-34.51,0-23.19,0-46.4-.46-69.58.22-9.25.27-12.1-2.97-13.27-11.75-6.99-52.46-14.55-104.84-23.58-157.15,0,33.02,0,66.05,0,99.07,0,19.98-.29,39.96.16,59.92.17,7.42-2.07,9.9-9.61,9.82-31.01-.34-62.03-.44-93.04.04-8.81.14-10.66-3.12-10.63-11.22.26-76.34.15-152.67.15-229.01,0-68.49,0-136.98,0-205.47v-12.53h113.04Z"/>
      <path class="cls-1" d="M.02,1438c0-95.24-.07-186.57.02-277.91.06-61.05.04-122.11.84-183.15.12-9.4,1.17-268.36,1.17-334.77,48.37,0,95.66.15,142.96-.17,7.07-.05,14.18-3.63,21.19-3.36,47.05,1.8,94.89-.49,140.92,7.48,70.15,12.14,112.64,62.16,121.62,132.69,2.5,19.64,3.77,39.58,3.81,59.38.32,138.02.51,276.05-.19,414.06-.11,21.52-2.85,43.53-8,64.43-16.5,66.95-61.33,104.46-128.19,115.94-21.3,3.66-43.21,4.95-64.86,5.14-69.65.62-139.31.23-208.97.23H.02ZM197.74,801.97v471.15c33.81,5.05,38.27,1.38,38.28-30.21.04-105.62-.19-211.24.15-316.86.09-28.44,1.45-56.9,2.96-85.31,1.82-34.21-7.72-44.02-41.39-38.77Z"/>
      <path class="cls-1" d="M418.42,151.83h145.05c20.02,152.26,40,304.24,60.11,457.25-4.04.4-7.12.95-10.2.96-29.98.07-59.96-.17-89.93.18-7.95.09-11.44-1.98-11.81-10.62-.64-14.92-2.65-29.78-4.16-45.48h-46.63c-1.65,17.91-3.3,35.87-5.05,54.88h-97.42c20-152.25,39.94-304.11,60.04-457.17ZM485.37,304.6c-.8-.05-1.6-.1-2.4-.15-.68,7.87-1.35,15.75-2.05,23.62-3.68,41.13-7.46,82.26-10.82,123.42-.19,2.31,2.92,6.81,4.85,7.02,7.63.82,15.41.34,23.95.34-4.61-52.49-9.07-103.37-13.53-154.25Z"/>
      <path class="cls-1" d="M1090.43,1437.88c-2.75-29.67-5.76-56.71-7.51-83.84-.7-10.87-4.05-15.6-15.5-15.27-21.67.63-43.38.18-67.85.18-2.34,26.76-5.77,52.39-6.38,78.09-.38,16.08-5.23,21.66-21.68,21.29-43.51-1-87.05-.29-130.58-.39-6.05-.01-12.1-.71-19.56-1.18,4.19-34.14,7.94-66.62,12.2-99.03,10.75-81.76,106.24-687.12,107.38-697.49h237.38c5.2,38.74,10.58,78.45,15.87,118.17,10.71,80.52,21.46,161.04,32.04,241.57,10.59,80.56,21.01,161.14,31.47,241.71,7.82,60.27,15.44,120.57,23.54,180.8,1.14,8.46,1.95,15.33-9.25,15.34-59.61.08-119.21.04-181.59.04ZM1065.8,1173.27c-8.22-93.74-16.31-186.02-24.41-278.31-.86.05-1.72.09-2.57.14-8.06,92.37-16.11,184.74-24.26,278.17h51.24Z"/>
      <path class="cls-1" d="M460.03,639.1h343.66c0,9.92,0,19.54,0,29.16,0,39.17-.83,78.36.38,117.5.53,16.95-5.25,20.98-21.31,20.57-41.47-1.07-82.99-.36-125.57-.36v142.31c16.94,0,34.06,0,51.19,0,24.88,0,49.78-.61,74.61.49,5.31.23,14.77,6.57,14.84,10.23.98,51.43.67,102.89.67,156.18h-140.7v153.5c6.27.37,12.87,1.08,19.47,1.08,37.94.04,75.88.18,113.81-.34,9.63-.13,15.34,1.24,15.27,12.72-.32,47.87.17,95.75-.64,143.61-.07,4.12-7.21,8.47-11.64,11.98-1.54,1.22-4.82.26-7.31.26-103.24,0-206.49-.09-309.73.14-11.33.03-18.2-.82-18.17-15.6.43-258.02.32-516.04.35-774.06,0-2.44.42-4.87.84-9.38Z"/>
      <path class="cls-1" d="M633.18,151.69h112.19v361.56h76.9c0,19.67,0,37.73,0,55.79,0,10.7-.25,21.41.1,32.09.2,6.09-1.18,9.09-8.15,9.05-48.16-.29-96.32.02-144.48-.56-8.79-.11-17.88,2.63-26.72-4.9-5.71-4.86-9.42-8.69-9.44-15.87-.15-62.02-.31-124.05-.37-186.07-.06-69.5-.02-139.01-.02-208.51,0-13.85,0-27.7,0-42.59Z"/>
      <path class="cls-1" d="M1099.14,151.9h112.36c0,11.11,0,21.67,0,32.24,0,137.71-.11,275.42.23,413.13.03,10.35-2.86,13.27-13.13,13.05-29.96-.66-59.95-.37-89.93-.14-6.87.05-10.18-1.26-10.16-9.32.22-147.7.17-295.4.19-443.1,0-1.72.26-3.43.45-5.86Z"/>
      <path class="cls-1" d="M358.49.05c7.93,0,15.27.12,22.6-.04,4.66-.1,4.56,2.88,4.56,6.1-.03,12.74-.01,25.48,0,38.21,0,2.75,0,5.49,0,8.74h17.56V16.75Q403.19.02,420.02.03c3.03,0,6.06,0,9.71,0v132.64h-26.32v-54.54h-17.43v54.35h-27.49V.05Z"/>
      <path class="cls-1" d="M443.15,132.63V.65h54.4v23.72h-27.04v29.04h26.46v24.08h-26.46v31.14c7.89,0,15.46.13,23.01-.06,3.95-.1,5.5,1.38,5.37,5.35-.2,6.05-.05,12.11-.05,18.71h-55.69Z"/>
      <path class="cls-1" d="M344.17.62v22.83c-.61.42-.79.66-1,.69-4.7.58-11.93-.45-13.52,2.07-2.46,3.9-1.27,10.23-1.28,15.53-.07,30.05-.03,60.09-.03,90.8h-26.95c0-2.74,0-5.44,0-8.14,0-30.07-.26-60.14.18-90.2.11-7.62-1.7-10.98-9.63-9.66-1.91.32-3.96-.22-6.36-.39V.62h58.61Z"/>
    </g>
  </g>
</svg>