<?xml version="1.0" encoding="UTF-8"?>
<svg id="Capa_2" data-name="Capa 2" xmlns="http://www.w3.org/2000/svg" viewBox="0 0 2813.81 723.06">
  <defs>
    <style>
      .cls-1 {
      fill: #400913;
      stroke-width: 0px;
      }
    </style>
  </defs>
  <g id="Logos">
    <g id="The_Walking" data-name="The Walking">
      <path class="cls-1"
        d="M0,260.69h117.87c5.13,55.7,10.19,110.74,15.26,165.79.34-.02.68-.05,1.02-.07,5.19-54.87,10.38-109.74,15.61-165.12h102.32c5.18,53.99,10.37,108,15.55,162,.49-.04.99-.08,1.48-.11,3.12-33.96,6.28-67.92,9.34-101.89,1.6-17.73,2.85-35.5,4.78-53.2.29-2.61,3.46-7.01,5.34-7.04,30.58-.44,61.16-.31,92.94-.31-2.57,22.36-4.87,43.49-7.43,64.59-5.49,45.22-11.09,90.42-16.67,135.63-6.23,50.51-12.56,101.01-18.71,151.53-3.87,31.8-7.76,63.6-11.08,95.45-.92,8.82-3.54,11.62-13.15,11.38-30.59-.77-61.22-.18-91.84.23-8.25.11-12.18-1.19-13.17-11.28-5.16-52.59-11.5-105.06-19.48-157.72-6.2,55.81-12.4,111.61-18.76,168.9h-69.65c-8.56,0-17.13.14-25.69-.03-24.15-.48-18.02,3.79-21.97-20.54-1.15-7.1-9-73-10.88-88.38-6.18-50.49-12.63-100.95-18.25-151.5-5.61-50.41-13.05-100.59-18.45-151.03-1.54-14.4-4.21-28.67-6.36-43,0-1.43,0-2.85,0-4.28Z" />
      <path class="cls-1"
        d="M1556.77,723.06c-3.32-.97-6.61-2.07-9.97-2.88-41.42-10.01-64.82-40.21-64.91-84.89-.18-97.03-.08-194.07.01-291.1,0-5.3.63-10.67,1.62-15.89,8.04-42.51,28.7-64.96,71.86-69.55,32.74-3.49,66.5-3.9,99.16-.09,48.22,5.62,71.97,33.21,74.99,81.97,1.74,28.08.46,56.34.54,84.52,0,3.17,0,6.34,0,10.61h-111.19c0-24.5.03-48.65-.01-72.79-.02-12.02-2.89-14.57-14.4-13.86-7.38.46-10.72,3.69-10.7,11.37.13,85.98.15,171.95-.01,257.93-.02,10.4,5.36,12.18,14.24,12.14,8.92-.04,11.79-3.51,11.54-12.21-.51-17.78-.57-35.6.01-53.37.32-9.79-.61-17.15-13.52-15.06v-89.56h125.18c.24,3.95.62,7.41.63,10.88.04,51.37.87,102.76-.44,154.1-.44,17.41-4.11,35.5-10.18,51.85-9.63,25.94-31.87,38.02-58.01,43.56-2.69.57-5.29,1.55-7.93,2.34h-98.5Z" />
      <path class="cls-1"
        d="M1320.71,550c0,53.22-.25,105.98.24,158.73.08,8.85-2.72,11.01-10.83,10.83-24.21-.56-48.44-.77-72.66-.66-7.2.03-9.71-3.62-9.69-9.68.02-5.99,1.38-11.99,1.35-17.98-.46-93.54-1.05-187.08-1.6-280.61-.03-5.67.13-65.83-.09-74.74-.58-24.53-.2-49.08-.2-74.74h108.61c11.69,48.93,23.41,98.01,35.13,147.08l2.02-.29v-146.65h92.58c.25,3.73.73,7.49.73,11.25.04,144.8-.06,289.6.24,434.39.02,9.8-2.55,12.94-12.49,12.71-27.1-.62-54.23-.52-81.33-.02-7.94.15-11.13-2.47-12.91-10.09-11.93-51.21-24.26-102.32-36.53-153.45-.48-2.01-1.6-3.86-2.56-6.1Z" />
      <path class="cls-1"
        d="M2567.06,260.7h10.25c44.94,0,89.89-.32,134.82.22,11.62.14,23.54,1.75,34.76,4.77,37.36,10.03,57.84,35.78,64.38,73.08,1.77,10.11,2.35,20.53,2.37,30.82.18,81.67.34,163.34-.14,245-.08,13.01-1.92,26.4-5.42,38.92-11.18,39.99-43.96,64.04-88.91,64.96-47.76.98-95.54.55-143.31,1.11-8.05.09-10.25-2.55-10.22-10.47.28-90.58.21-181.17.23-271.75,0-39.93,2.05-173.12,1.2-176.67ZM2679.65,353.46v272.44c18.53,1.98,22.06-1.06,22.07-18.48.03-78.43.03-156.85,0-235.28,0-17.41-3.35-20.31-22.07-18.69Z" />
      <path class="cls-1"
        d="M946.53,261.4v175.03c.52.05,1.03.09,1.55.14,9.43-58.39,18.87-116.79,28.32-175.25h113.53c-9.76,50.61-19.36,100.5-28.99,150.38-3.84,19.9-9.56,39.66-11.06,59.73-1.22,16.24,1.6,33.03,4.35,49.29,10.68,63.12,22.07,126.12,33.1,189.18.47,2.67.06,5.48.06,9.54-11.86,0-23.18,0-34.51,0-23.19,0-46.4-.46-69.58.22-9.25.27-12.1-2.97-13.27-11.75-6.99-52.46-14.55-104.84-23.58-157.15,0,33.02,0,66.05,0,99.07,0,19.98-.29,39.96.16,59.92.17,7.42-2.07,9.9-9.61,9.82-31.01-.34-62.03-.44-93.04.04-8.81.14-10.66-3.12-10.63-11.22.26-76.34.15-152.67.15-229.01,0-68.49,0-136.98,0-205.47v-12.53h113.04Z" />
      <path class="cls-1"
        d="M1820.18,719.44c0-54.63-.04-107.03.01-159.43.03-35.02.02-70.05.48-105.06.07-5.39.67-153.94.67-192.04,27.75,0,54.88.09,82.01-.1,4.06-.03,8.13-2.08,12.15-1.93,26.99,1.03,54.43-.28,80.84,4.29,40.24,6.96,64.62,35.66,69.77,76.12,1.43,11.27,2.16,22.7,2.19,34.06.18,79.18.29,158.36-.11,237.53-.06,12.34-1.64,24.97-4.59,36.96-9.46,38.41-35.18,59.92-73.54,66.51-12.22,2.1-24.79,2.84-37.21,2.95-39.96.36-79.92.13-119.88.13h-12.81ZM1933.6,354.58v270.28c19.4,2.9,21.95.79,21.96-17.33.02-60.59-.11-121.18.09-181.77.05-16.32.83-32.64,1.7-48.94,1.04-19.63-4.43-25.25-23.74-22.24Z" />
      <path class="cls-1"
        d="M418.42,261.19h145.05c20.02,152.26,40,304.24,60.11,457.25-4.04.4-7.12.95-10.2.96-29.98.07-59.96-.17-89.93.18-7.95.09-11.44-1.98-11.81-10.62-.64-14.92-2.65-29.78-4.16-45.48h-46.63c-1.65,17.91-3.3,35.87-5.05,54.88h-97.42c20-152.25,39.94-304.11,60.04-457.17ZM485.37,413.97c-.8-.05-1.6-.1-2.4-.15-.68,7.87-1.35,15.75-2.05,23.62-3.68,41.13-7.46,82.26-10.82,123.42-.19,2.31,2.92,6.81,4.85,7.02,7.63.82,15.41.34,23.95.34-4.61-52.49-9.07-103.37-13.53-154.25Z" />
      <path class="cls-1"
        d="M2445.7,719.38c-1.58-17.02-3.3-32.53-4.31-48.1-.4-6.24-2.33-8.95-8.89-8.76-12.43.36-24.88.1-38.92.1-1.34,15.35-3.31,30.06-3.66,44.8-.22,9.22-3,12.43-12.44,12.21-24.96-.57-49.94-.17-74.91-.22-3.47,0-6.94-.41-11.22-.68,2.4-19.58,4.56-38.22,7-56.81,6.16-46.9,60.94-394.17,61.6-400.12h136.17c2.99,22.22,6.07,45,9.1,67.79,6.15,46.19,12.31,92.38,18.38,138.58,6.07,46.21,12.06,92.44,18.06,138.66,4.49,34.57,8.86,69.17,13.51,103.72.65,4.85,1.12,8.79-5.31,8.8-34.19.05-68.39.02-104.17.02ZM2431.57,567.58c-4.72-53.77-9.36-106.71-14-159.65-.49.03-.98.05-1.48.08-4.62,52.99-9.24,105.98-13.92,159.57h29.4Z" />
      <path class="cls-1"
        d="M2084.07,261.15h197.14c0,5.69,0,11.21,0,16.73,0,22.47-.48,44.95.22,67.4.3,9.72-3.01,12.04-12.23,11.8-23.79-.62-47.61-.21-72.04-.21v81.64c9.72,0,19.54,0,29.36,0,14.27,0,28.56-.35,42.8.28,3.05.13,8.47,3.77,8.51,5.87.56,29.51.38,59.02.38,89.59h-80.72v88.06c3.6.21,7.38.62,11.17.62,21.76.02,43.53.1,65.29-.19,5.53-.07,8.8.71,8.76,7.29-.19,27.46.1,54.93-.37,82.38-.04,2.36-4.14,4.86-6.68,6.87-.88.7-2.77.15-4.19.15-59.23,0-118.45-.05-177.68.08-6.5.01-10.44-.47-10.42-8.95.25-148.01.18-296.03.2-444.04,0-1.4.24-2.8.48-5.38Z" />
      <path class="cls-1"
        d="M633.18,261.06h112.19v361.56h76.9c0,19.67,0,37.73,0,55.79,0,10.7-.25,21.41.1,32.09.2,6.09-1.18,9.09-8.15,9.05-48.16-.29-96.32.02-144.48-.56-8.79-.11-17.88,2.63-26.72-4.9-5.71-4.86-9.42-8.69-9.44-15.87-.15-62.02-.31-124.05-.37-186.07-.06-69.5-.02-139.01-.02-208.51,0-13.85,0-27.7,0-42.59Z" />
      <path class="cls-1"
        d="M1099.14,261.26h112.36c0,11.11,0,21.67,0,32.24,0,137.71-.11,275.42.23,413.13.03,10.35-2.86,13.27-13.13,13.05-29.96-.66-59.95-.37-89.93-.14-6.87.05-10.18-1.26-10.16-9.32.22-147.7.17-295.4.19-443.1,0-1.72.26-3.43.45-5.86Z" />
      <path class="cls-1"
        d="M387.63.06c11.1,0,21.37.17,31.63-.06,6.52-.14,6.39,4.02,6.38,8.54-.04,17.83-.02,35.66-.01,53.48,0,3.84,0,7.69,0,12.23h24.57V23.44Q450.19.03,473.75.04c4.24,0,8.48,0,13.59,0v185.65h-36.84v-76.33h-24.4v76.07h-38.47V.06Z" />
      <path class="cls-1"
        d="M506.13,185.63V.91h76.13v33.2h-37.85v40.64h37.04v33.71h-37.03v43.58c11.04,0,21.63.19,32.21-.08,5.52-.14,7.7,1.93,7.51,7.48-.29,8.47-.07,16.95-.07,26.19h-77.94Z" />
      <path class="cls-1"
        d="M367.6.86v31.96c-.85.59-1.11.92-1.4.96-6.58.81-16.69-.64-18.93,2.9-3.45,5.45-1.78,14.31-1.8,21.73-.1,42.05-.05,84.11-.05,127.09h-37.72c0-3.83,0-7.61,0-11.39,0-42.08-.37-84.17.26-126.25.16-10.67-2.38-15.37-13.49-13.52-2.67.45-5.55-.31-8.91-.55V.86h82.04Z" />
    </g>
  </g>
</svg>