<?xml version="1.0" encoding="UTF-8"?>
<svg id="Capa_2" data-name="Capa 2" xmlns="http://www.w3.org/2000/svg" viewBox="0 0 1587.26 1520.07">
  <defs>
    <style>
      .cls-1 {
        fill: #400913;
        stroke-width: 0px;
      }
    </style>
  </defs>
  <g id="Logos">
    <g id="World_Beyond" data-name="World Beyond">
      <path class="cls-1" d="M113.6,678.41c4.47-11.79,9.6-23.37,13.28-35.4,9.27-30.27,18.04-60.7,26.6-91.18,1.42-5.07,1.98-10.98.87-16.05-4.38-19.98,15.62-42.75,36.72-41.15,15.65,1.19,31.31,2.32,50.74,3.76,15.01,66.92,30.72,136.91,46,205.03,12.24-118.65,6.38-241.59,11.83-363.92,1.93.02,3.85.03,5.78.05v69.27c1.9.14,3.81.28,5.71.42,1.67-19.44,3.34-38.89,5.01-58.33,1.34.11,2.68.23,4.01.34v43.02c1.1.06,2.2.13,3.3.19,1.1-9.35,2.2-18.7,3.3-28.05.91.1,1.83.21,2.74.31v48.04c2.39.37,4.78.73,7.17,1.1,3.43-22.34,6.85-44.69,10.56-68.88,4.27-.96,11.1-2.74,18.03-4.01,18.82-3.45,25.98,2.75,25.33,21.88-3.19,93.02-5.91,186.05-9.83,279.04-2.51,59.5-7.42,118.9-10.09,178.4-1.39,30.95-.24,62.01-.24,92.27-9.84,3.72-16.32,6.18-24.72,9.36-2.03-7.72-3.8-14.47-5.69-21.64-1.57,5.08-3.15,10.19-6.61,21.41-3.8-20.02-6.42-33.79-9.76-51.38-3.68,8.59-6.23,13.75-8.11,19.14-1.96,5.61-1.64,13.16-5.34,16.72-4.21,4.05-11.77,4.63-19.36,7.23-.27-17.58-4.63-29.29-25.89-22.31-3.08,1.01-13.01-9.3-14.92-15.8-10.8-36.79-19.99-74.06-30-111.09-6.96-25.73-14.37-51.34-26.66-76.82-17.05,66.49-34.11,132.97-50.66,197.5-9.28,5.21-18.14,10.18-27,15.16,3.07.75,6.14,1.5,8.73,2.13-12.89,19.73-32.76,24.93-54.79,21.42-6.05-.96-15.16-8.65-15.73-14-5.12-48.4-8.01-97.04-12.8-145.48-7.44-75.12-15.97-150.13-23.86-225.21C11.27,483.83,5.38,426.73.03,369.59c-.4-4.31,2.98-12.02,6.3-13.16,27.48-9.38,55.57-14.79,85.22-7.9,5.72,110.48,29.92,218.7,16.32,329.3,1.91.19,3.82.38,5.73.58ZM327.37,861.8v-114.02c-1.51-.04-3.02-.09-4.53-.13-1.38,2.83-2.75,5.66-4.2,8.65-1.77-2.17-3.29-4.04-9.19-11.28,7.63,42.75-5.71,81.52,17.92,116.78Z"/>
      <path class="cls-1" d="M735.37,737.02v158.16c3.32-5.34,4.59-7.37,8.94-14.36v52.21c-1.04.12-2.07.23-3.11.35-1.16-7.02-2.31-14.03-2.53-15.35-4.38,6.35-11.13,16.12-17.89,25.9-2.83-.75-5.67-1.51-8.5-2.26-2.47-15.12-7.14-30.26-7.04-45.36.58-92.08.68-184.21,4.14-276.2,1.94-51.71.02-103.02-2.28-154.55-1.25-27.97,2.47-56.17,8.61-84.29,1.51,26.35,3.03,52.7,4.54,79.05,2.1-.04,4.21-.08,6.31-.12v-60.94c1.75-.14,3.49-.28,5.24-.41,1.52,12.1,3.03,24.2,4.55,36.3.89-.06,1.78-.11,2.68-.17,1.17-9.76,2.34-19.52,3.5-29.27.73.15,1.46.3,2.2.45,1.26,18.53,2.51,37.05,4.17,61.56,18.63-45.79,15.47-84.56-2.51-123.42-6.4-13.83,6.56-14.17,14.45-13.64,32.61,2.18,65.16,5.22,97.69,8.46,10.07,1,20.05,3.31,29.95,5.56,67.29,15.29,97.48,47.89,98.58,116.15.89,55.05-3.33,110.34-8.11,165.28-2.69,30.91-21.35,53.93-50.45,66.1-17.29,7.23-35.59,12.02-56.1,18.78,4.03,5.84,7.79,12.2,12.41,17.85,34.98,42.78,70,85.52,105.3,128.04,11.21,13.5,17.74,30,6.6,43.46-15.5,18.73-31.09,41.79-61.15,37.54-5.37-.76-10.71-6.52-14.74-11.13-19.14-21.86-37.92-44.05-56.66-66.26-18.44-21.85-36.68-43.88-59.21-70.85v155.95h-48.52c0-37.35.67-74.72-.32-112.05-.41-15.73,1.04-36.35-7.86-45.89-13.96-14.99-5.04-30.85-12.86-50.63ZM814.55,631.93c24.05-5.7,46.01-10.1,67.34-16.57,4.96-1.5,10.88-9.91,11.11-15.36,2.04-49.2,3.37-98.45,3.5-147.68.01-5.59-7.73-14.69-13.45-16.2-21.97-5.79-44.58-9.16-68.5-13.72v209.54Z"/>
      <path class="cls-1" d="M1536.26,836.06c.92,3.94,3.79,8.75,2.47,11.67-12.5,27.73-37.22,45.09-64.04,49.82-45.94,8.11-93.28,8.29-140.02,11.87-15.07,1.15-20.05-5.25-19.7-20.57,2.7-116.35,5.41-232.7,6.48-349.07.51-55.9-2.13-111.85-4.24-167.74-.54-14.23,2.92-23.67,18.14-23.02,46.16,1.97,93.57-1.06,138.08,8.77,56.84,12.56,83.73,59.08,95.8,113.44,18.11,81.55,22.34,164,13.74,247.12-.97,9.39-.17,18.96-1.19,28.34-2.98,27.32-21.98,46.35-36.16,67.79-4.71,7.12-10.81,13.32-16.27,19.94,2.3.55,4.6,1.1,6.91,1.65ZM1409.66,798.88c-.87,0,3.34-.11,7.54.02,52.7,1.56,57.95-3.27,68.03-56.05,3.02-15.83,9.74-30.94,14.29-46.52,1.19-4.08.57-8.67.86-13.03,3.89-57.36-2.61-114.07-11.25-170.58-6.8-44.48-31.5-64.15-79.48-62.85v349ZM1326.4,676.55c.43,0,.86,0,1.29,0v-125.46c-.43,0-.86,0-1.29,0v125.45Z"/>
      <path class="cls-1" d="M1306.69,1473.81c-18.02,1.83-34.99,3.56-56.32,5.73,8.3-112.56-47.67-204.14-88.37-301.24v341.43c-24.48,0-48.53,1.21-72.27-.96-5.13-.47-13.02-13.09-13.08-20.17-.78-88-.31-176-.22-264.01.05-55.19.01-110.38.01-165.57,2.39-.13,4.78-.26,7.16-.4,1.1,6.26,2.2,12.52,3.3,18.78-1-.21-2.01-.42-3.01-.62,6.31-30.8,12.6-61.61,18.96-92.4.43-2.06.86-4.45,2.15-5.95,10.36-12.1,66.77-4.36,73.46,10.13,19.76,42.79,39.37,85.65,64.45,128.36v-156.06c28.7,0,52.68-1.06,76.41.88,4.82.4,12.54,12.16,12.47,18.62-1.43,126.4-2.67,252.83-6.78,379.16-1.1,33.83-11.57,67.37-18.32,104.28Z"/>
      <path class="cls-1" d="M654.93,559.59c0,84.79.34,169.59-.54,254.38-.09,8.29-7.94,16.42-11.84,24.79-2.95,6.33-6.24,12.7-7.83,19.42-11.52,48.77-43.33,77.69-91.43,83.67-30.32,3.77-57.18-13.67-79.75-33.61-39.81-35.16-45.88-84.64-53.8-133.07,27.26-93.25-2.03-187.72,6.1-281.32,4.56-52.51,16.95-101.84,65.57-133.21,65.18-42.05,143.33-14.91,166.17,59.2,6.95,22.55,10.68,46.44,12.88,70,2.15,23.06.47,46.48.47,69.74-2,0-3.99,0-5.99,0ZM590.54,541.72c-1.24-.12-2.49-.24-3.73-.36-4.32-26.6-8.87-53.16-12.89-79.8-2.47-16.39-6.09-33.29-24.5-37.04-18.73-3.82-31.29,8.31-40,23.98-1.73,3.12-3,6.75-3.5,10.28-3.76,26.51-10.42,53.06-10.28,79.58.4,77.48,3.55,154.95,5.62,232.42,10.48,2.99,20.16,5.74,29.56,8.42,6.32,41.33,12.82,55.01,31.47,64.39,31.56-76.8,10.06-159.23,25.42-236.15,14.77,21.15-7.97,50.8,15.06,75.42v-195.95c-1.19.09-2.37.17-3.56.26-2.89,18.18-5.79,36.37-8.68,54.55ZM599.5,694.9c-10.77,29.02-8.69,80.9,0,88.29v-88.29Z"/>
      <path class="cls-1" d="M1044.7,1131.49c0,71.24.63,142.49-.18,213.73-.78,68.43-28.18,109.11-86.72,132.24-66.11,26.12-135.37-17.36-138.95-88.85-3.02-60.22-4.04-120.57-4.52-180.88-.32-39.84,2.28-79.69,2.84-119.54.37-26.64,16.46-44.55,34.07-60.44,27.79-25.08,115.35-34.38,150.58-7.42,24.24,18.55,37.02,42.18,38.94,72,.84,13,.14,26.1.14,39.15,1.26,0,2.52.01,3.79.02ZM912.95,1095.55c-1.22,3.14-2.15,4.42-2.15,5.7-.4,89.2-.84,178.39-.89,267.59,0,10.98-2.22,24.03,15.41,25.63,17.01,1.54,28.8-4.22,32.43-21.32,2.39-11.27,3.76-22.99,3.68-34.5-.42-59.39-1.18-118.77-2.4-178.15-.47-22.69-2.48-45.35-3.85-69-17.06,1.64-29.22,2.8-42.22,4.05ZM869.64,1312.76c1.25-.07-2.77.05-2.77.17.04,17.25.28,34.51,1.03,51.74.03.65,6.48,2.4,7.46,1.34,1.92-2.08,3.25-5.96,2.78-8.76-2.44-14.66-5.51-29.21-8.5-44.48Z"/>
      <path class="cls-1" d="M193.17,1209.19c24.06,14.55,46.49,27.93,68.66,41.73,2.71,1.69,4.47,5.38,5.95,8.48,22.84,48.04,8.52,135.02-28.17,171.74-30.69,30.72-78,36.77-119.05,18.77-9.81-4.3-24.28,2.06-36.62,3.44-5.77.65-11.54,1.27-17.33,1.65-41.92,2.81-42.76,1.72-43.3-39.77-.64-49.27-2.67-98.53-2.71-147.8-.06-73.7,1.1-147.41,1.71-221.11.11-12.84.01-25.69.01-39.58,55.2-7.45,111.55-8.43,167.34,3.38,32.83,6.95,47.5,27.32,47.06,61.09-.3,23.14-3.64,46.3-3.02,69.39.84,30.87-12.82,52.31-40.52,68.58ZM107.01,1401.78c25.88-7.18,49.52-12.3,72.12-20.34,33.7-12,45.05-78.92,16.56-100.82-25.77-19.81-57.03-24.14-88.68-25.07v146.23ZM96.76,1180.28c23.86-7.93,42.69-12.94,60.31-20.7,6.54-2.88,13.51-11.75,14.56-18.74,2.57-17.12,3.17-34.85,1.65-52.08-.53-6.06-9.08-15.59-14.8-16.25-18.38-2.09-37.14-.78-56.54-.78-1.78,37.28-3.38,70.68-5.19,108.55Z"/>
      <path class="cls-1" d="M1564.28,1183.94c0,61.79.65,123.59-.22,185.38-.61,43.26-12.66,59.54-54.95,68.53-21.47,4.57-44.62,1.27-67.01,1.49-5.74.06-11.58.65-17.21-.15-19.2-2.75-38.41-5.64-57.41-9.46-3.24-.65-7.89-6.18-7.86-9.43.44-56.74.68-113.5,3.01-170.18.59-14.3,14.98-30.24,11.56-42.12-13.95-48.5,1.99-97.11-4.47-145.44-2.4-17.94,2.07-37.25,6.13-55.32,1.12-5.01,12.41-11.65,18.36-11.03,41.72,4.37,83.88,7.71,124.69,16.8,36.49,8.13,53.98,36.96,54.43,77.18.35,31.26.07,62.52.07,93.79-3.04,0-6.07-.01-9.11-.02ZM1455.06,1085.32c-9.93,96.29-28.53,190.09-21.05,285.97,43.95-.74,47.67-4.85,48.4-43.71,1.31-69.51,3.34-139.01,5.07-208.51.77-31.05,5.65-29.1-32.42-33.76Z"/>
      <path class="cls-1" d="M388.39,1272.49v106.34h183.6c2.46,10.03,7.65,26.58,9.93,43.52.6,4.46-7.46,14.24-12.12,14.62-60.82,5.04-120.69,14.36-179.67,30.68-19.87,5.5-41.55,4.48-66.7,6.84-22.22-154.42-14.58-308.57-30.86-461.18,20.25-6.31,36.79-14.26,53.99-16.13,23.61-2.56,47.73-.3,71.63-.51,19.86-.17,39.75-.32,59.56-1.59,23.97-1.55,26.93.84,26.2,24.27-.51,16.33-1.43,32.72-.5,48.99.9,15.77-5.6,20.02-20.51,19.65-35.05-.87-70.13-.28-107.6-.28,1.63,33.98,3.36,70.13,5.21,108.81h130.42c3.49,26.06,6.64,49.52,10.18,75.95h-132.74Z"/>
      <path class="cls-1" d="M1124.12,818.8h166.43c-2.27,31.74-4.56,63.72-7.08,98.92-44.01,0-88.19,1.6-132.2-.46-42.14-1.97-86.11,14.46-126.88-12.86,0-24.1-2.6-50.46.51-76.13,7.98-65.97,3.24-131.95,2.52-197.85-.94-86.31-5.27-172.59-7.11-258.9-.12-5.55,8.28-15.89,13.19-16.19,26.63-1.61,53.4-.76,82.31-.76,2.77,154.43,5.5,307.14,8.31,464.23ZM1084.4,546.47c-1.77.01-3.54.03-5.32.04v106.33c1.77-.02,3.54-.04,5.32-.06v-106.31Z"/>
      <path class="cls-1" d="M705.56,1395.93c-6.68,12.43-14.36,24.45-19.73,37.43-4.36,10.55-2.95,10.86,8.39,21.04,1.81,1.63,2.16,6.14,1.56,8.98-2.67,12.64-5.94,25.15-9.3,38.99-24.06-5.9-47.96-8.37-61.98-33.07-4.38,3.05-10.08,7.02-15.78,10.99-2.19-.89-4.37-1.77-6.56-2.66,13.85-59.75,39.9-116.22,53.54-179.32-7.57-1.13-15.83-2.37-25.61-3.84-9.45-25.05-19.99-52.99-30.54-80.94-1.77-10.51-3.54-21.01-5.31-31.52-1.91-22.64-3.81-45.27-5.72-67.91,1.11-.25,2.22-.49,3.32-.74,2.42,11.06,4.84,22.12,7.26,33.17,1.73-.33,3.46-.67,5.19-1-2.86-14.64-5.71-29.29-8.57-43.93-1.54,1.27-3.07,2.54-4.61,3.81-7.11-7.64-14.22-15.28-20.79-22.34-.48,1.87-1.6,6.3-2.73,10.72-1.01.01-2.02.02-3.03.03-4.49-22.42-8.98-44.84-13.86-69.16,22.45-4.86,43.48-9.18,64.39-14.01,17.61-4.07,27.18.97,29.07,20.45,3.7,38.16,7.75,76.34,13.73,114.19,3.28,20.76,10.77,40.85,20.02,60.81,11.87-67.05,23.61-134.12,35.66-201.14,5.17-28.76,14.19-33.91,41.93-25.04,2.06.66,3.99,1.87,6.08,2.3,41.94,8.52,41.62,8.44,33.72,50.46-17.68,94.03-34.52,188.23-52.99,282.1-2.7,13.73.12,34.55-23.59,35.86-4.37,15.07-8.78,30.17-13.19,45.27Z"/>
      <path class="cls-1" d="M594.25,1182.01c1.77,10.51,3.54,21.01,5.31,31.52,1.41,9.85,2.83,19.69,4.24,29.54-1.41.33-2.82.66-4.23,1-7.58-30.49-15.16-60.99-22.74-91.48.77-.18,1.54-.36,2.3-.54,5.04,9.99,10.08,19.98,15.11,29.97Z"/>
      <path class="cls-1" d="M705.56,1395.93c4.41-15.1,8.82-30.19,13.19-45.27,9.43,13.07,18.24,25.11-2.5,37.41-5.19,3.08-5.22,14.85-10.7,21.98v-14.13Z"/>
      <g id="The_Walking" data-name="The Walking">
        <path class="cls-1" d="M275.76,99.41h44.95c1.96,21.24,3.89,42.23,5.82,63.22.13,0,.26-.02.39-.03,1.98-20.92,3.96-41.85,5.95-62.97h39.02c1.98,20.59,3.95,41.18,5.93,61.78.19-.01.38-.03.57-.04,1.19-12.95,2.39-25.9,3.56-38.85.61-6.76,1.09-13.54,1.82-20.29.11-1,1.32-2.67,2.04-2.68,11.66-.17,23.32-.12,35.44-.12-.98,8.53-1.86,16.58-2.83,24.63-2.09,17.24-4.23,34.48-6.36,51.72-2.38,19.26-4.79,38.52-7.13,57.78-1.48,12.13-2.96,24.25-4.23,36.4-.35,3.36-1.35,4.43-5.01,4.34-11.67-.29-23.35-.07-35.02.09-3.14.04-4.64-.45-5.02-4.3-1.97-20.05-4.39-40.06-7.43-60.14-2.36,21.28-4.73,42.56-7.15,64.4h-26.56c-3.27,0-6.53.05-9.8-.01-9.21-.18-6.87,1.45-8.38-7.83-.44-2.71-3.43-27.84-4.15-33.7-2.36-19.25-4.82-38.49-6.96-57.77-2.14-19.22-4.98-38.36-7.03-57.59-.59-5.49-1.6-10.93-2.42-16.4,0-.54,0-1.09,0-1.63Z"/>
        <path class="cls-1" d="M869.41,275.73c-1.27-.37-2.52-.79-3.8-1.1-15.8-3.82-24.72-15.33-24.75-32.37-.07-37-.03-74,0-111.01,0-2.02.24-4.07.62-6.06,3.07-16.21,10.94-24.77,27.4-26.52,12.48-1.33,25.36-1.49,37.81-.03,18.39,2.14,27.45,12.66,28.6,31.26.66,10.71.17,21.49.2,32.23,0,1.21,0,2.42,0,4.05h-42.4c0-9.34.01-18.55,0-27.76,0-4.58-1.1-5.55-5.49-5.28-2.81.17-4.09,1.41-4.08,4.33.05,32.78.06,65.57,0,98.36,0,3.96,2.04,4.64,5.43,4.63,3.4-.02,4.5-1.34,4.4-4.66-.19-6.78-.22-13.57,0-20.35.12-3.73-.23-6.54-5.16-5.74v-34.15h47.73c.09,1.51.24,2.83.24,4.15.01,19.59.33,39.19-.17,58.76-.17,6.64-1.57,13.54-3.88,19.77-3.67,9.89-12.15,14.5-22.12,16.61-1.03.22-2.02.59-3.02.89h-37.56Z"/>
        <path class="cls-1" d="M779.39,209.73c0,20.3-.09,40.41.09,60.53.03,3.37-1.04,4.2-4.13,4.13-9.23-.21-18.47-.29-27.71-.25-2.75.01-3.7-1.38-3.7-3.69,0-2.29.53-4.57.51-6.85-.18-35.67-.4-71.34-.61-107.01-.01-2.16.05-25.1-.03-28.5-.22-9.35-.08-18.72-.08-28.5h41.41c4.46,18.66,8.93,37.37,13.39,56.09l.77-.11v-55.92h35.3c.1,1.42.28,2.86.28,4.29.01,55.22-.02,110.43.09,165.65,0,3.74-.97,4.93-4.76,4.85-10.33-.23-20.68-.2-31.02,0-3.03.06-4.25-.94-4.92-3.85-4.55-19.53-9.25-39.02-13.93-58.52-.18-.77-.61-1.47-.98-2.32Z"/>
        <path class="cls-1" d="M1254.66,99.41h3.91c17.14,0,34.28-.12,51.41.08,4.43.05,8.97.67,13.25,1.82,14.24,3.83,22.06,13.64,24.55,27.87.68,3.85.89,7.83.9,11.75.07,31.14.13,62.29-.05,93.43-.03,4.96-.73,10.07-2.07,14.84-4.26,15.25-16.77,24.42-33.9,24.77-18.21.37-36.43.21-54.65.42-3.07.04-3.91-.97-3.9-3.99.11-34.54.08-69.08.09-103.63,0-15.23.78-66.02.46-67.37ZM1297.6,134.78v103.89c7.07.75,8.41-.4,8.42-7.05.01-29.91.01-59.81,0-89.72,0-6.64-1.28-7.74-8.42-7.13Z"/>
        <path class="cls-1" d="M636.71,99.68v66.75c.2.02.39.04.59.05,3.6-22.27,7.2-44.53,10.8-66.83h43.29c-3.72,19.3-7.38,38.32-11.05,57.34-1.47,7.59-3.65,15.12-4.22,22.78-.46,6.19.61,12.6,1.66,18.79,4.07,24.07,8.41,48.09,12.62,72.14.18,1.02.02,2.09.02,3.64-4.52,0-8.84,0-13.16,0-8.84,0-17.69-.17-26.53.09-3.53.1-4.61-1.13-5.06-4.48-2.67-20-5.55-39.98-8.99-59.93,0,12.59,0,25.19,0,37.78,0,7.62-.11,15.24.06,22.85.06,2.83-.79,3.78-3.66,3.74-11.83-.13-23.65-.17-35.48.02-3.36.05-4.06-1.19-4.05-4.28.1-29.11.06-58.22.06-87.33,0-26.12,0-52.23,0-78.35v-4.78h43.1Z"/>
        <path class="cls-1" d="M969.85,274.35c0-20.83-.01-40.81,0-60.79.01-13.36,0-26.71.18-40.06.03-2.06.26-58.7.26-73.23,10.58,0,20.93.03,31.27-.04,1.55-.01,3.1-.79,4.63-.73,10.29.39,20.76-.11,30.83,1.64,15.35,2.65,24.64,13.6,26.61,29.03.55,4.3.82,8.66.83,12.99.07,30.19.11,60.39-.04,90.58-.02,4.71-.62,9.52-1.75,14.09-3.61,14.65-13.42,22.85-28.04,25.36-4.66.8-9.45,1.08-14.19,1.12-15.24.14-30.47.05-45.71.05h-4.89ZM1013.11,135.21v103.07c7.4,1.1,8.37.3,8.37-6.61,0-23.1-.04-46.21.03-69.31.02-6.22.32-12.45.65-18.66.4-7.48-1.69-9.63-9.05-8.48Z"/>
        <path class="cls-1" d="M435.32,99.6h55.31c7.63,58.06,15.25,116.02,22.92,174.36-1.54.15-2.71.36-3.89.37-11.43.03-22.86-.06-34.29.07-3.03.03-4.36-.75-4.5-4.05-.24-5.69-1.01-11.35-1.59-17.34h-17.78c-.63,6.83-1.26,13.68-1.93,20.93h-37.15c7.62-58.06,15.23-115.97,22.89-174.33ZM460.85,157.86c-.3-.02-.61-.04-.91-.06-.26,3-.51,6.01-.78,9.01-1.4,15.69-2.85,31.37-4.13,47.06-.07.88,1.11,2.6,1.85,2.68,2.91.31,5.88.13,9.13.13-1.76-20.02-3.46-39.42-5.16-58.82Z"/>
        <path class="cls-1" d="M1208.39,274.32c-.6-6.49-1.26-12.41-1.64-18.34-.15-2.38-.89-3.41-3.39-3.34-4.74.14-9.49.04-14.84.04-.51,5.85-1.26,11.46-1.4,17.08-.08,3.52-1.14,4.74-4.74,4.66-9.52-.22-19.04-.06-28.56-.08-1.32,0-2.65-.16-4.28-.26.92-7.47,1.74-14.57,2.67-21.66,2.35-17.89,23.24-150.31,23.49-152.58h51.93c1.14,8.47,2.31,17.16,3.47,25.85,2.34,17.61,4.69,35.23,7.01,52.84,2.32,17.62,4.6,35.25,6.88,52.88,1.71,13.18,3.38,26.37,5.15,39.55.25,1.85.43,3.35-2.02,3.36-13.04.02-26.08,0-39.72,0ZM1203,216.44c-1.8-20.51-3.57-40.69-5.34-60.88-.19.01-.38.02-.56.03-1.76,20.21-3.52,40.41-5.31,60.85h11.21Z"/>
        <path class="cls-1" d="M1070.48,99.58h75.18c0,2.17,0,4.27,0,6.38,0,8.57-.18,17.14.08,25.7.12,3.71-1.15,4.59-4.66,4.5-9.07-.24-18.15-.08-27.47-.08v31.13c3.7,0,7.45,0,11.2,0,5.44,0,10.89-.13,16.32.11,1.16.05,3.23,1.44,3.25,2.24.21,11.25.15,22.51.15,34.16h-30.78v33.58c1.37.08,2.82.24,4.26.24,8.3,0,16.6.04,24.9-.07,2.11-.03,3.36.27,3.34,2.78-.07,10.47.04,20.95-.14,31.42-.02.9-1.58,1.85-2.55,2.62-.34.27-1.06.06-1.6.06-22.58,0-45.17-.02-67.75.03-2.48,0-3.98-.18-3.98-3.41.09-56.44.07-112.88.08-169.33,0-.53.09-1.07.18-2.05Z"/>
        <path class="cls-1" d="M517.22,99.55h42.78v137.87h29.33c0,7.5,0,14.39,0,21.28,0,4.08-.1,8.16.04,12.24.08,2.32-.45,3.47-3.11,3.45-18.36-.11-36.73,0-55.09-.21-3.35-.04-6.82,1-10.19-1.87-2.18-1.85-3.59-3.31-3.6-6.05-.06-23.65-.12-47.3-.14-70.95-.02-26.5,0-53.01,0-79.51,0-5.28,0-10.56,0-16.24Z"/>
        <path class="cls-1" d="M694.9,99.63h42.85c0,4.24,0,8.26,0,12.29,0,52.51-.04,105.03.09,157.54,0,3.95-1.09,5.06-5.01,4.98-11.43-.25-22.86-.14-34.29-.05-2.62.02-3.88-.48-3.88-3.56.09-56.32.06-112.64.07-168.97,0-.65.1-1.31.17-2.23Z"/>
        <path class="cls-1" d="M423.58.02c4.23,0,8.15.06,12.06-.02,2.49-.05,2.44,1.53,2.43,3.26-.02,6.8,0,13.6,0,20.39,0,1.47,0,2.93,0,4.66h9.37V8.94Q447.44.01,456.42.01c1.62,0,3.23,0,5.18,0v70.79h-14.05v-29.11h-9.3v29.01h-14.67V.02Z"/>
        <path class="cls-1" d="M468.77,70.79V.35h29.03v12.66h-14.43v15.5h14.12v12.85h-14.12v16.62c4.21,0,8.25.07,12.28-.03,2.11-.05,2.94.74,2.86,2.85-.11,3.23-.03,6.46-.03,9.99h-29.72Z"/>
        <path class="cls-1" d="M415.94.33v12.19c-.32.23-.42.35-.54.37-2.51.31-6.37-.24-7.22,1.11-1.31,2.08-.68,5.46-.69,8.29-.04,16.04-.02,32.07-.02,48.46h-14.39c0-1.46,0-2.9,0-4.34,0-16.05-.14-32.1.1-48.14.06-4.07-.91-5.86-5.14-5.16-1.02.17-2.12-.12-3.4-.21V.33h31.28Z"/>
      </g>
    </g>
  </g>
</svg>