<?xml version="1.0" encoding="UTF-8"?>
<svg id="Capa_2" data-name="Capa 2" xmlns="http://www.w3.org/2000/svg" viewBox="0 0 1423.8 1543.34">
  <defs>
    <style>
      .cls-1 {
        fill: #400913;
        stroke-width: 0px;
      }
    </style>
  </defs>
  <g id="Logos">
    <g id="Dixon">
      <path class="cls-1" d="M546.56,378.58c-6.88,2.54-11.28,4.55-15.89,5.8-22.46,6.11-37.85,23.69-35.7,46.75,3.2,34.44,8.83,68.69,14.27,102.88,7.97,50.1,16.67,100.08,25.14,150.09.99,5.83,2.56,11.56,3.96,17.76,13.12-.63,25.65-1.23,38.18-1.83.47,1.76.95,3.52,1.42,5.28-9.04,4.59-18.66,8.36-26.89,14.12-4.33,3.03-9.54,10.2-8.7,14.38,8.16,40.94,17.46,81.65,26.58,122.4.91,4.05,2.72,7.91,4.19,11.83,5.87,15.67,17.55,24.08,33.89,24.92,9.94.51,27.59-19.7,28.5-33.42,2.97-44.69,6.57-89.42,7.19-134.17,1.13-81.96.53-163.95.1-245.93-.1-19.1-2.12-38.22-3.83-57.28-1.38-15.43-16.94-32.73-32.38-37.02-5.51-1.53-11.07-2.93-16.6-4.39-.08-1.89-.16-3.79-.24-5.68,8.57-1.39,17.13-3.89,25.72-3.98,42.36-.45,84.75-.95,127.09-.05,29.67.63,58.95.99,85.52,20.2,26.44,19.11,35.1,45.23,36.44,74.31,1.82,39.28,1.61,78.77-.18,118.06-1.79,39.41-24.01,83.57-72.99,88.89-1.54.17-2.92,1.8-6.88,4.38,9.19,21.51,17.57,43.69,27.96,64.88,22.28,45.43,36.25,95.58,71.72,133.6,10.65,11.41,25.68,18.73,41.4,29.83-38.1,7.75-75.2-.83-108.86,1.23-26.73-94.83-67.7-180.6-108.58-266.64,23.89-3.01,45.74-5.12,67.35-8.68,18.07-2.98,29.19-14.29,29.31-33.06.3-47.68,1.42-95.46-1.1-143.03-1.43-26.94-13.09-34.84-40-35.95-17.31-.71-34.67-.09-51.99-.54-11.26-.29-15.65,3.87-15.59,15.79.35,75.99-.07,151.98-.07,227.97,0,57.38.16,114.76.43,172.14.09,19.5,2.4,38.97,19.44,51.46,9.04,6.63,20.55,9.9,31.45,14.92-12.93,10.53-253.57,8.53-294.58-2.81,7.1-3.55,10.94-6.28,15.21-7.47,26.83-7.47,38.72-23.22,35.77-50.9-2.89-27.11-7.34-54.06-11.1-81.08-2.13-.74-4.26-1.48-6.39-2.23-14.67,26.49-29.35,52.99-45.23,81.65-15.13-26.8-29.83-52.86-44.54-78.92-1.9.77-3.79,1.53-5.69,2.3-9.67,31.54-15.13,64.35-8.86,96.59,2.42,12.44,18.4,22.81,29.47,32.72,4.22,3.78,11.96,3.63,19.19,5.55-11.87,11.96-140.9,13.78-162.49,2.59,5.6-2.35,9.42-4.81,13.54-5.53,20.25-3.56,31.66-16.7,35.84-35.4,8.83-39.53,16.71-79.29,23.98-119.14.83-4.53-3.47-11.91-7.61-15.03-9.34-7.04-20.06-12.25-30.22-18.21.35-1.86.71-3.72,1.06-5.58,13.92,1.32,27.84,2.65,42.8,4.07,7.12-42.43,14.5-85.95,21.72-129.5,6.65-40.08,13.07-80.2,19.75-120.27,4.02-24.09,2.93-47.17-17.93-63.54-8.38-6.57-19.64-9.47-29.69-14.09,10.86-9.69,181.5-9.19,205.22,1.97ZM443.27,439.48c-.81.04-1.62.07-2.42.11-2.28,14.01-4.7,28-6.81,42.03-9.73,64.79-19.28,129.6-29.08,194.38-4.12,27.2-15.35,56.37,23.37,69.43,4.89,1.65,8.35,7.54,11.98,11,8.9-7.02,15.96-15.21,24.89-19.11,20.75-9.06,22.47-24.48,19.29-43.74-13.99-84.66-27.51-169.39-41.2-254.1Z"/>
      <path class="cls-1" d="M801.94,958.78c-6.48,4.14-8.65,6.62-11.09,6.91-28.49,3.37-41.31,24.63-51.69,46.99-12.78,27.54-24.29,55.76-34.71,84.28-14.73,40.34-28.05,81.19-41.67,121.92-1.64,4.91-3.3,11.1-1.75,15.59,26.94,77.77,53.99,155.51,81.95,232.92,8.98,24.86,26.1,42.4,55.7,44.48-.23,1.73-.47,3.46-.7,5.2-4.16,1.51-8.28,4.22-12.47,4.33-28.7.75-57.41,1.32-86.11.94-4.18-.06-11.18-4.83-11.98-8.5-8.42-38.23-13.69-77.27-24.11-114.9-11.23-40.59-27.02-79.91-41.83-122.68-21.86,50.85-66.37,185.25-65.58,244.85h-248.45l-1.03-6.06c5.61-2.05,11.08-4.72,16.86-6.02,19.15-4.32,32.52-17.64,33.9-35.05,5.11-64.76,7.36-129.75,10.74-195.83-16.66,3.58-29.39,6.31-42.11,9.04,33.55-26.27,40.5-61.52,39.76-98.77-1.18-59.69-3.49-119.39-6.96-179-1.07-18.34-14.17-30.83-31.47-37.51-5.92-2.28-12.29-3.41-19.51-9,3.96-1.86,7.86-5.18,11.88-5.33,31.6-1.21,63.23-2.22,94.85-2.51,43.53-.39,87.06-.12,130.6-.03,4.65,0,9.31.71,14.47,1.13,2.39,80.03,46.14,148.32,57.74,225.16,1.61.34,3.22.68,4.84,1.02,6.4-17.97,13.54-35.71,19.04-53.95,13.08-43.38,25.49-86.96,37.86-130.54,1.61-5.66,1.59-11.82,1.98-17.77,1.63-25.06,1.59-25,26.19-25,26.82,0,53.64-.24,80.45-.12,3.19.01,6.37,1.62,14.39,3.81ZM412.84,1222.23c1.35.08,2.69.15,4.04.23,0,10.17-.32,20.34.05,30.5,2.62,71.59,5.3,143.17,8.14,214.75.74,18.74,12.22,32.36,27.59,38.8,15.4,6.45,27.06-5.75,35.11-18.26,7.02-10.92,14-22.3,18.35-34.42,19.14-53.3,36.43-107.27,56.14-160.35,13.91-37.46,22.43-72.46,5.62-113-23.71-57.18-40.21-117.31-61.52-175.54-4.5-12.31-14.27-26.41-25.42-31.8-24.1-11.65-53.58,8.73-55.73,38.15-5.12,70.24-8.37,140.63-12.37,210.95Z"/>
      <path class="cls-1" d="M1243.82,956.24c55.75-3.58,111.53-2.01,167.3-.97.37,2.35.75,4.7,1.12,7.05-5.6,2.05-11.08,4.52-16.82,6.08-18.56,5.04-34.21,20.7-35.08,40.18-3.12,69.17-5.62,138.38-7.19,207.6-.9,39.44-.68,78.97,1.07,118.37,2.23,50.08,6.2,100.09,10.08,150.07,1.36,17.57,9.64,31.59,25.8,40.51,7.76,4.29,14.72,10.02,26.24,18.01-26.56.86-48.16-.96-68.74-10.11-54.19-24.08-89.39-64.8-104.57-122.08-21.98-82.97-43.4-166.09-64.84-249.2-9.2-35.67-17.85-71.48-27.6-110.64,0,40.29.03,76.96,0,113.62-.07,79.45-.64,158.9.01,238.34.2,23.83.36,48.64,7.08,71.04,3.91,13.03,20.32,22.75,32.14,32.74,4.31,3.64,11.6,3.75,19,5.9-15.3,13.55-153.81,13.78-171.81.34,7.51-2.31,13.27-4.22,19.1-5.87,19.14-5.38,33.16-19.4,34.5-37.13,4.86-64.28,6.51-128.8,9.39-193.63-15.83,4.16-29.71,7.8-43.6,11.45-.88-1.33-1.77-2.66-2.65-3.99,37.79-24.88,42.08-62.37,41.46-102.25-.86-54.99-.02-110.02-1.45-164.99-.69-26.74-15.34-44.26-42.63-49.71-3.25-.65-6.26-2.47-12.68-5.1,5.62-3.33,8.64-6.68,11.7-6.7,38.79-.3,77.6-.65,116.36.65,4.58.15,11.21,9.35,12.85,15.45,13.04,48.42,25.31,97.06,37.4,145.73,19.28,77.6,37.58,155.45,57.65,232.84,7.61,29.36,18.96,57.75,32.57,86.36,0-17.06.37-34.12-.06-51.17-2-78.82-4.21-157.64-6.38-236.47-1.21-44.18-2.12-88.36-3.84-132.52-1.07-27.5-16.39-43.52-43.02-49.32-3.32-.72-6.42-2.4-9.63-3.64-.08-2.28-.16-4.57-.23-6.85Z"/>
      <path class="cls-1" d="M61.92,1283.91c-19.56,5.04-34.53,8.9-49.49,12.76-1.31-1.75-2.63-3.5-3.94-5.25,34.97-16.41,43.38-48.37,49.93-80.58,3.05-15,2.34-30.87,2.42-46.35.22-41.75.56-83.51-.38-125.24-.47-20.74-1.25-42.89-19.72-57-10.32-7.89-23.37-12.2-36.09-22.1,7.98-1.5,15.94-4.2,23.93-4.3,46.63-.57,93.28.22,139.88-.88,71.33-1.68,109.61,44.7,117.2,104.19,13.64,106.94,16.52,214.61,7.15,322.08-2.54,29.08-10.68,58.77-22.06,85.73-16.57,39.24-52.69,55.44-92.73,56.9-54.12,1.98-108.42-.59-162.63-1.36-3.22-.05-6.42-1.49-15.38-3.71,8.61-4.5,12.43-7.69,16.71-8.54,24.73-4.9,36.85-20.07,37.86-44.78,2.45-60.16,4.87-120.33,7.35-181.58ZM114.22,1468.46c29.12,0,52.63,2.33,75.29-1.04,10.41-1.55,21.89-12.58,27.94-22.37,6.93-11.21,10.8-25.63,11.77-38.97,4.22-58.27,10.14-116.69,9.23-174.96-.92-58.2-8.21-116.41-14.77-174.38-3.25-28.75-18.67-42.87-46.19-47.32-15.29-2.47-30.98-2.65-46.52-3.31-11.89-.5-17.35,5.3-16.49,17.69,1.16,16.68,2.04,33.43,1.93,50.14-.52,77.1-1.63,154.2-2.13,231.3-.35,53.71-.07,107.42-.07,163.22Z"/>
      <path class="cls-1" d="M1026.2,1182.62c0,68.73.57,137.47-.33,206.19-.29,22.51-4.12,45-6.84,67.44-4.68,38.65-30.95,58.11-64.83,68.39-36.94,11.21-73.93,11.13-110.42-4.7-29.65-12.86-45.76-34.82-46.68-67.5-1.7-59.76-4.14-119.51-5.14-179.29-.63-37.61.97-75.25,1.22-112.87.28-42.99-.12-85.98.34-128.96.22-20.57,10.43-34.69,25.06-50.27,50.55-53.82,107.18-40.22,164.98-20.26,25,8.63,38.43,29.7,39.11,55.21,1.5,55.49.46,111.06.46,166.59,1.03.01,2.06.02,3.08.03ZM966.34,1176.94c2-.04,3.99-.07,5.99-.11-2.75-47.65-4.18-95.42-8.75-142.9-2.65-27.52-15.21-37.8-43.14-39.6-13.35-.86-27.14,2.17-40.49,4.74-17.29,3.32-24.95,16.04-25.55,32.33-1.79,48.93-2.84,97.89-4.06,146.84-.46,18.52-1.14,37.06-.79,55.57,1.24,64.45,1.88,128.94,5.14,193.29.73,14.46-1.9,32.71,15.43,43.46,21.25,13.19,43.01,18.06,66.38,7.98,24.52-10.57,29.65-32.52,29.73-56.12.27-81.83.11-163.65.11-245.48Z"/>
      <path class="cls-1" d="M3.81,900.19c6.05-1.85,13.45-2.1,17.87-5.86,10.08-8.57,25.89-18.26,26.74-28.53,5.07-61.64,6.56-123.57,9.32-186.94-18.9,5.69-33.62,10.12-47.31,14.24,11.75-18.76,22.78-36.06,33.48-53.57,14.15-23.16,12.63-49.18,12.86-74.74.3-32.18,1.36-64.44-.4-96.52-1.09-19.75-3.83-40.56-11.65-58.33-4.51-10.25-20.54-15.5-31.51-22.81-3.13-2.08-6.71-3.49-10.09-5.21l.36-5.07c16.03-.98,32.04-2.58,48.08-2.82,36.47-.54,72.94-.39,109.41-.54,57.18-.24,100.77,35.22,107.02,92.49,6.27,57.48,10.23,115.44,10.91,173.23.64,54.16-2.71,108.52-7.26,162.54-5.89,69.89-48.34,106.9-118.75,106.94-44.82.03-89.65-.42-134.47-.83-4.89-.04-9.78-1.25-14.67-1.92.02-1.92.03-3.83.05-5.75ZM109.09,524.05c-.73,0-1.46,0-2.19,0,0,40.04-.4,80.09.09,120.13.77,62.11,2.16,124.22,3.27,186.33.5,27.81.48,28.02,28.98,27.66,13.13-.17,26.82.77,39.26-2.54,28-7.46,34.5-32.09,36.44-56.13,4.42-54.63,9.41-109.49,8.63-164.18-.79-55.27-7.41-110.53-13.13-165.62-2.89-27.77-20.81-43.13-49.02-46.23-11.88-1.31-23.9-1.33-35.85-1.93-12.97-.65-17.45,4.69-16.85,18.29,1.22,28.03.37,56.15.37,84.23Z"/>
      <path class="cls-1" d="M861.64,374.07h93.56c8.14,38.49,15.19,75.08,23.7,111.33,13.59,57.88,28.14,115.53,44.48,173.78,22.44-94.62,69.68-182.87,71.85-285.17h103.41c-5.79,5.44-7.29,8.13-8.98,8.25-31.21,2.17-37.86,26.35-45.69,49.93-20.07,60.44-40.82,120.66-60.58,181.2-10.35,31.72-20.44,63.62-28.43,95.98-12.2,49.48-9.1,99.72-.76,149.32,2.65,15.74,14.1,28.74,31.85,32.95,5.46,1.29,10.74,3.37,17.36,5.49-13.96,11.11-132.88,12.85-161.79,2.36,7.57-3.42,12.24-6.34,17.33-7.69,20.22-5.38,31.73-18.59,33.69-38.94,6.41-66.37,4.62-131.92-15.6-196.53-20.48-65.42-38.24-131.69-57.45-197.51-3.67-12.57-8.57-24.78-12.86-37.16-7.58-21.89-17.86-40.9-48.16-38.71,1.03-2.96,2.05-5.92,3.08-8.87Z"/>
      <path class="cls-1" d="M1214.52,373.68h112.63c.39,1.77.79,3.53,1.18,5.3-4.31,1.78-8.49,4.03-12.96,5.26-21.88,6.02-35.32,19.79-36.99,42.76-3.11,42.89-5.81,85.87-6.56,128.85-1.26,72.28-.9,144.58-1.15,216.87-.1,29.12-.02,58.24-.02,91.43,26.87-2.52,48.69-3.84,70.2-7.19,4.38-.68,9.89-8.56,10.84-13.85,2.3-12.85,1.72-26.18,3.2-39.22,4.32-38.09,34.26-69.75,68.9-73.46-39.64,41.07-46.03,93.69-18.08,147.31,3.96,7.6,7.21,15.56,11.79,25.54h-249.64c-.28-1.94-.55-3.88-.83-5.82,4.57-1.88,9-4.23,13.72-5.55,21.17-5.93,34.77-19.87,35.8-41.28,2.68-55.98,4.19-112.02,6.21-169.41-17.22,4.33-31.58,7.94-45.94,11.55-.91-1.25-1.82-2.51-2.73-3.76,47.23-30.5,47.09-78.25,47.57-125.47.49-47.76.64-95.54-.14-143.29-.23-14.08-4.1-28.09-7-46.58Z"/>
      <path class="cls-1" d="M910.14,1270.94c-20.89-28.15-20.83-30.62.56-54.78,21.09,26.32,21.1,27.65-.56,54.78Z"/>
      <g id="The_Walking" data-name="The Walking">
        <path class="cls-1" d="M145.62,104.79h47.38c2.06,22.39,4.1,44.52,6.13,66.64.14,0,.27-.02.41-.03,2.09-22.06,4.17-44.11,6.28-66.37h41.13c2.08,21.7,4.17,43.41,6.25,65.12.2-.02.4-.03.6-.05,1.25-13.65,2.52-27.3,3.76-40.96.64-7.13,1.15-14.27,1.92-21.38.11-1.05,1.39-2.82,2.15-2.83,12.29-.18,24.59-.13,37.36-.13-1.03,8.99-1.96,17.48-2.99,25.96-2.21,18.18-4.46,36.35-6.7,54.52-2.51,20.3-5.05,40.6-7.52,60.91-1.56,12.78-3.12,25.56-4.46,38.37-.37,3.55-1.42,4.67-5.29,4.57-12.3-.31-24.61-.07-36.92.09-3.31.05-4.89-.48-5.29-4.53-2.07-21.14-4.62-42.23-7.83-63.4-2.49,22.43-4.98,44.87-7.54,67.89h-28c-3.44,0-6.89.06-10.33-.01-9.71-.19-7.24,1.52-8.83-8.26-.46-2.85-3.62-29.34-4.37-35.53-2.48-20.3-5.08-40.58-7.34-60.9-2.25-20.26-5.25-40.43-7.42-60.71-.62-5.79-1.69-11.53-2.56-17.29,0-.57,0-1.15,0-1.72Z"/>
        <path class="cls-1" d="M771.39,290.65c-1.33-.39-2.66-.83-4.01-1.16-16.65-4.03-26.06-16.16-26.09-34.12-.07-39-.03-78.01,0-117.01,0-2.13.25-4.29.65-6.39,3.23-17.09,11.54-26.11,28.89-27.96,13.16-1.4,26.73-1.57,39.86-.04,19.38,2.26,28.93,13.35,30.14,32.95.7,11.29.18,22.65.22,33.98,0,1.27,0,2.55,0,4.27h-44.7c0-9.85.01-19.55,0-29.26,0-4.83-1.16-5.86-5.79-5.57-2.97.18-4.31,1.48-4.3,4.57.05,34.56.06,69.12,0,103.68,0,4.18,2.16,4.89,5.72,4.88,3.59-.02,4.74-1.41,4.64-4.91-.2-7.15-.23-14.31,0-21.45.13-3.94-.24-6.9-5.44-6.05v-36h50.32c.1,1.59.25,2.98.25,4.37.02,20.65.35,41.31-.18,61.94-.18,7-1.65,14.27-4.09,20.84-3.87,10.43-12.81,15.28-23.32,17.51-1.08.23-2.13.62-3.19.94h-39.59Z"/>
        <path class="cls-1" d="M676.5,221.08c0,21.39-.1,42.6.1,63.81.03,3.56-1.09,4.43-4.35,4.35-9.73-.22-19.47-.31-29.21-.27-2.9.01-3.9-1.46-3.9-3.89,0-2.41.55-4.82.54-7.23-.19-37.6-.42-75.2-.65-112.8-.01-2.28.05-26.46-.03-30.04-.23-9.86-.08-19.73-.08-30.04h43.66c4.7,19.67,9.41,39.4,14.12,59.12l.81-.12v-58.95h37.21c.1,1.5.29,3.01.29,4.52.02,58.2-.03,116.41.1,174.61,0,3.94-1.03,5.2-5.02,5.11-10.89-.25-21.8-.21-32.69,0-3.19.06-4.47-.99-5.19-4.05-4.79-20.58-9.75-41.13-14.68-61.68-.19-.81-.64-1.55-1.03-2.45Z"/>
        <path class="cls-1" d="M1177.49,104.79h4.12c18.06,0,36.13-.13,54.19.09,4.67.06,9.46.7,13.97,1.92,15.02,4.03,23.25,14.38,25.88,29.38.71,4.06.94,8.25.95,12.39.07,32.83.14,65.66-.06,98.48-.03,5.23-.77,10.61-2.18,15.65-4.5,16.07-17.67,25.74-35.74,26.11-19.2.39-38.4.22-57.61.44-3.23.04-4.12-1.02-4.11-4.21.11-36.41.08-72.82.09-109.23,0-16.05.82-69.59.48-71.01ZM1222.75,142.08v109.51c7.45.8,8.87-.43,8.87-7.43.01-31.52.01-63.05,0-94.57,0-7-1.35-8.16-8.87-7.51Z"/>
        <path class="cls-1" d="M526.09,105.07v70.36c.21.02.41.04.62.06,3.79-23.47,7.58-46.95,11.38-70.45h45.63c-3.92,20.35-7.78,40.4-11.65,60.45-1.54,8-3.84,15.94-4.45,24.01-.49,6.53.64,13.28,1.75,19.81,4.29,25.37,8.87,50.7,13.31,76.05.19,1.07.02,2.2.02,3.83-4.77,0-9.32,0-13.87,0-9.32,0-18.65-.18-27.97.09-3.72.11-4.86-1.19-5.33-4.72-2.81-21.09-5.85-42.14-9.48-63.17,0,13.27,0,26.55,0,39.82,0,8.03-.12,16.06.07,24.09.07,2.98-.83,3.98-3.86,3.95-12.47-.14-24.94-.18-37.4.02-3.54.05-4.28-1.25-4.27-4.51.1-30.68.06-61.37.06-92.05,0-27.53,0-55.06,0-82.59v-5.04h45.44Z"/>
        <path class="cls-1" d="M877.27,289.19c0-21.96-.02-43.02,0-64.08.01-14.08,0-28.16.19-42.23.03-2.17.27-61.88.27-77.2,11.15,0,22.06.04,32.96-.04,1.63-.01,3.27-.84,4.89-.77,10.85.41,21.88-.11,32.5,1.72,16.18,2.8,25.97,14.33,28.05,30.6.58,4.53.87,9.13.88,13.69.07,31.83.12,63.65-.04,95.48-.03,4.96-.66,10.04-1.84,14.86-3.8,15.44-14.14,24.09-29.56,26.74-4.91.84-9.96,1.14-14.96,1.19-16.06.14-32.12.05-48.19.05h-5.15ZM922.87,142.53v108.64c7.8,1.16,8.82.32,8.83-6.97,0-24.36-.04-48.71.04-73.07.02-6.56.33-13.12.68-19.67.42-7.89-1.78-10.15-9.54-8.94Z"/>
        <path class="cls-1" d="M313.81,104.99h58.31c8.05,61.21,16.08,122.3,24.16,183.8-1.62.16-2.86.38-4.1.38-12.05.03-24.1-.07-36.15.07-3.2.04-4.6-.79-4.75-4.27-.26-6-1.06-11.97-1.67-18.28h-18.74c-.66,7.2-1.33,14.42-2.03,22.06h-39.16c8.04-61.2,16.05-122.24,24.13-183.77ZM340.72,166.4c-.32-.02-.64-.04-.96-.06-.27,3.17-.54,6.33-.82,9.5-1.48,16.53-3,33.07-4.35,49.61-.08.93,1.17,2.74,1.95,2.82,3.07.33,6.19.14,9.63.14-1.85-21.1-3.65-41.55-5.44-62Z"/>
        <path class="cls-1" d="M1128.71,289.17c-.63-6.84-1.33-13.08-1.73-19.33-.16-2.51-.93-3.6-3.57-3.52-5,.14-10,.04-15.64.04-.54,6.17-1.33,12.08-1.47,18.01-.09,3.71-1.21,5-5,4.91-10.03-.23-20.07-.07-30.11-.09-1.39,0-2.79-.16-4.51-.27.97-7.87,1.83-15.36,2.81-22.84,2.48-18.85,24.5-158.44,24.76-160.83h54.74c1.2,8.93,2.44,18.09,3.66,27.25,2.47,18.57,4.95,37.13,7.39,55.7,2.44,18.58,4.85,37.16,7.26,55.74,1.8,13.9,3.56,27.8,5.43,41.69.26,1.95.45,3.53-2.13,3.54-13.75.02-27.49,0-41.87,0ZM1123.03,228.15c-1.9-21.62-3.76-42.9-5.63-64.18-.2.01-.4.02-.59.03-1.86,21.3-3.72,42.6-5.59,64.14h11.82Z"/>
        <path class="cls-1" d="M983.35,104.97h79.24c0,2.29,0,4.51,0,6.72,0,9.03-.19,18.07.09,27.09.12,3.91-1.21,4.84-4.91,4.74-9.56-.25-19.14-.08-28.96-.08v32.82c3.91,0,7.85,0,11.8,0,5.74,0,11.48-.14,17.21.11,1.22.05,3.41,1.51,3.42,2.36.23,11.86.15,23.73.15,36.01h-32.45v35.4c1.45.08,2.97.25,4.49.25,8.75,0,17.5.04,26.24-.08,2.22-.03,3.54.29,3.52,2.93-.07,11.04.04,22.08-.15,33.12-.02.95-1.66,1.95-2.68,2.76-.35.28-1.11.06-1.69.06-23.81,0-47.61-.02-71.42.03-2.61,0-4.2-.19-4.19-3.6.1-59.5.07-118.99.08-178.49,0-.56.1-1.12.19-2.16Z"/>
        <path class="cls-1" d="M400.14,104.94h45.1v145.33h30.91c0,7.91,0,15.17,0,22.43,0,4.3-.1,8.6.04,12.9.08,2.45-.47,3.65-3.28,3.64-19.36-.12-38.72,0-58.08-.22-3.53-.04-7.19,1.06-10.74-1.97-2.29-1.95-3.79-3.49-3.79-6.38-.06-24.93-.13-49.86-.15-74.8-.03-27.94,0-55.88,0-83.81,0-5.57,0-11.13,0-17.12Z"/>
        <path class="cls-1" d="M587.44,105.02h45.16c0,4.46,0,8.71,0,12.96,0,55.36-.04,110.71.09,166.06.01,4.16-1.15,5.34-5.28,5.24-12.04-.27-24.1-.15-36.15-.05-2.76.02-4.09-.51-4.09-3.75.09-59.37.07-118.74.08-178.11,0-.69.1-1.38.18-2.35Z"/>
        <path class="cls-1" d="M301.43.03c4.46,0,8.59.07,12.71-.02,2.62-.06,2.57,1.62,2.56,3.43-.02,7.17,0,14.33,0,21.5,0,1.55,0,3.09,0,4.91h9.88V9.42Q326.58.01,336.05.02c1.7,0,3.41,0,5.46,0v74.62h-14.81v-30.68h-9.81v30.58h-15.46V.03Z"/>
        <path class="cls-1" d="M349.06,74.62V.37h30.6v13.34h-15.21v16.34h14.89v13.55h-14.88v17.52c4.44,0,8.7.08,12.95-.03,2.22-.06,3.09.78,3.02,3.01-.12,3.4-.03,6.81-.03,10.53h-31.33Z"/>
        <path class="cls-1" d="M293.38.35v12.85c-.34.24-.45.37-.56.39-2.64.33-6.71-.26-7.61,1.17-1.39,2.19-.72,5.75-.72,8.73-.04,16.9-.02,33.81-.02,51.08h-15.16c0-1.54,0-3.06,0-4.58,0-16.92-.15-33.84.1-50.75.06-4.29-.96-6.18-5.42-5.43-1.08.18-2.23-.12-3.58-.22V.35h32.98Z"/>
      </g>
    </g>
  </g>
</svg>