<?xml version="1.0" encoding="UTF-8"?>
<svg id="Capa_2" data-name="Capa 2" xmlns="http://www.w3.org/2000/svg" viewBox="0 0 1702.32 1190.26">
  <defs>
    <style>
      .cls-1 {
        fill: #400913;
        stroke-width: 0px;
      }
    </style>
  </defs>
  <g id="Logos">
    <g id="Fear">
      <path class="cls-1" d="M0,910.52h71.31c3.1,33.7,6.17,67,9.23,100.3.21-.01.41-.03.62-.04,3.14-33.2,6.28-66.39,9.45-99.9h61.9c3.14,32.66,6.27,65.34,9.41,98.01.3-.02.6-.05.9-.07,1.89-20.55,3.8-41.09,5.65-61.64.97-10.73,1.72-21.48,2.89-32.18.17-1.58,2.09-4.24,3.23-4.26,18.5-.27,37-.19,56.23-.19-1.55,13.53-2.95,26.31-4.5,39.07-3.32,27.36-6.71,54.7-10.09,82.05-3.77,30.56-7.6,61.11-11.32,91.67-2.34,19.24-4.69,38.47-6.71,57.75-.56,5.34-2.14,7.03-7.96,6.88-18.51-.47-37.04-.11-55.56.14-4.99.07-7.37-.72-7.96-6.82-3.12-31.82-6.96-63.56-11.79-95.42-3.75,33.76-7.5,67.53-11.35,102.18h-42.13c-5.18,0-10.36.09-15.54-.02-14.61-.29-10.9,2.29-13.29-12.43-.7-4.29.04-8.82.13-14.35-3.43-2.1-3.36-4.6,2.76-12.9-2.18.76-3.54,1.23-5.74,2-1.28-9.64-2.59-18.92-3.73-28.22-3.74-30.55-7.64-61.07-11.04-91.66-3.39-30.5-7.9-60.86-11.16-91.37-.93-8.71-2.54-17.35-3.85-26.02,0-.86,0-1.73,0-2.59ZM161.16,1151.72c-.18,1.57-.33,2.92-.49,4.27.65.33,1.3.67,1.95,1,2.45-3.61,4.9-7.23,8.24-12.16-4.29-.64-7.85-2.25-10.22-1.2-2.19.98-3.11,4.81-4.86,7.84,2.03.09,3.55.16,5.38.24Z"/>
      <path class="cls-1" d="M941.83,1190.26c-2.01-.58-4-1.25-6.03-1.74-25.06-6.06-39.22-24.32-39.27-51.36-.11-58.7-.05-117.41,0-176.11,0-3.21.38-6.46.98-9.61,4.86-25.72,17.36-39.3,43.48-42.08,19.81-2.11,40.23-2.36,59.99-.06,29.17,3.4,43.54,20.09,45.37,49.59,1.05,16.99.28,34.09.32,51.14,0,1.92,0,3.83,0,6.42h-67.27c0-14.82.02-29.43,0-44.04-.01-7.27-1.75-8.81-8.71-8.38-4.47.28-6.48,2.23-6.48,6.88.08,52.01.09,104.03,0,156.04-.01,6.29,3.24,7.37,8.61,7.34,5.4-.02,7.13-2.13,6.98-7.39-.31-10.76-.34-21.53,0-32.29.19-5.92-.37-10.38-8.18-9.11v-54.19h75.73c.14,2.39.38,4.48.38,6.58.02,31.08.52,62.17-.27,93.23-.27,10.54-2.49,21.48-6.16,31.37-5.82,15.69-19.28,23-35.09,26.36-1.63.34-3.2.94-4.8,1.41h-59.59Z"/>
      <path class="cls-1" d="M1454.75,497.48v8.54c0,111.79,0,223.58,0,335.37,0,20.4-4.29,24.76-24.59,24.78-35.84.04-71.67.01-107.51.01-.43,0-.86,0-1.3,0-13.64-.2-15.39-1.85-15.46-15.27-.19-33.87-.32-67.75-.42-101.63-.22-69.91-.44-139.82-.58-209.73-.15-73.59-.18-147.18-.32-220.77-.07-37.11-.24-74.22-.4-111.34-.25-60.41-.6-120.82-.77-181.23-.08-28.25,8.18-26.22,26.06-26.18,61.1.15,122.19-.07,183.29.12,26.34.08,51.87,4.9,75.85,16.15,41.64,19.53,65,53.42,71.74,97.85,3.79,24.99,3.77,50.65,4.15,76.03.72,48.11-.04,96.24.84,144.34.53,29.3-6.6,55.46-26.45,77.3-6.45,7.1-14.45,12.77-21.79,19.13,6.84,5.14,14.22,10.61,21.53,16.17,20.98,15.97,29.99,37.55,30.02,63.49.07,77.9-.14,155.81.64,233.7.2,20.34,3.03,40.73,5.73,60.95,1.82,13.68,8.55,25.62,17.5,36.18.98,1.15,1.96,2.3,2.86,3.52,3.3,4.45,6.92,10.01,3.69,14.69-2.25,3.25-8.38,5.25-12.82,5.34-37.1.71-74.21.88-111.32,1.13-4.3.03-8.62-.31-12.9-.71-13.58-1.27-23.27-8.34-29.48-20.29-7.05-13.56-8.82-28.31-8.85-43.26-.13-81.58-.01-163.15-.27-244.73-.02-7.88-1.21-15.96-3.23-23.59-5.66-21.37-21.04-32.75-45.9-34.87-6.19-.53-12.41-.79-19.49-1.22ZM1451.26,360.82c8.03-.71,15.33-1.13,22.57-2.06,4.89-.63,9.77-1.69,14.51-3.06,20.59-5.96,31.09-19.47,31.28-41.26.33-37.52.31-75.04.23-112.56-.02-7.51-.54-15.08-1.56-22.53-2.45-18.04-10.99-32.08-29.32-37.12-12.06-3.32-24.72-4.46-37.71-6.68v225.27Z"/>
      <path class="cls-1" d="M1037.94.1c22.45,0,44.91-.02,67.36,0,15.87.02,19.66,3.48,21.81,19.05,8.05,58.22,16.23,116.43,24.24,174.65,7.57,55.03,14.91,110.09,22.49,165.12,7.99,58.01,16.23,115.98,24.22,173.99,7.99,58.01,15.71,116.06,23.73,174.06,6.11,44.15,12.46,88.26,18.79,132.37,2.3,16.02-3.95,25.31-19.95,25.76-33.42.94-66.88.76-100.32.99-1.7.01-3.41-.5-5.11-.78-11.33-1.88-18.56-9.07-20.34-20.36-5.28-33.59-10.52-67.18-15.79-100.77-1.52-9.71-3.88-12.82-13.64-13.05-21.99-.53-44.01-.45-66.01,0-8.58.17-12.15,4.03-13.43,12.92-4.52,31.32-8.78,62.68-13.16,94.03-.65,4.68-1.28,9.38-2.17,14.02-1.5,7.78-6.71,11.82-14.21,12.97-4.46.68-9.01,1.06-13.52,1.07-31.31.09-62.61.06-93.92.04-15.15,0-21.44-6.72-19.45-21.85,3.34-25.4,7.23-50.72,10.82-76.09,4.07-28.78,8.05-57.57,12.11-86.35,4.6-32.61,9.27-65.21,13.85-97.83,4.07-29,8.03-58.01,12.11-87,4.53-32.19,9.2-64.36,13.73-96.55,4.56-32.4,8.96-64.83,13.52-97.23,4.95-35.18,10.05-70.33,15.02-105.5,4.94-34.96,9.69-69.94,14.75-104.89,3.6-24.91,7.01-49.87,11.6-74.6,2.77-14.95,8.15-18.18,23.52-18.18,22.45,0,44.91,0,67.36,0ZM1030.13,448.4c-.94,1.5-1.27,1.8-1.33,2.15-6.07,34.07-12.21,68.12-18.12,102.22-1.79,10.36-3.07,20.82-4.32,31.26-.53,4.43,1.47,7.99,6.28,8.06,12.03.19,24.09.36,36.08-.37,5.51-.34,7.88-5.18,6.87-10.42-6.84-35.66-13.63-71.33-20.45-107-1.59-8.31-3.21-16.6-5.01-25.89Z"/>
      <path class="cls-1" d="M545.8,146.1v8.18c0,66.26.11,132.53-.17,198.79-.03,6.8,2,8.14,8.35,8.09,36.7-.3,73.41-.14,110.11-.14h8.17v141.25h-130.38v212.08h224.16v8.15c0,39.5,0,79,0,118.5,0,18.87-6.28,25.18-25.25,25.18-103.42.02-206.84.03-310.27-.03-7.54,0-15.09-.44-22.6-.99-10.87-.8-15.05-5.2-15.35-15.88-.22-7.76-.41-15.52-.41-23.28-.02-263.11-.02-526.21,0-789.32,0-4.74.15-9.49.45-14.22.87-13.53,9.99-22.12,23.66-22.33,5.4-.08,10.8-.02,16.19-.02,101.91,0,203.82,0,305.73,0,17.27,0,25.5,7.12,25.69,24.39.44,39.71.12,79.43.08,119.14,0,.61-.3,1.22-.63,2.47h-217.52Z"/>
      <path class="cls-1" d="M343.27,139.09h-204.29v228.78h137.89v134.46h-135.97v8.81c0,108.77,0,217.54,0,326.32,0,24.53-4.14,28.74-28.19,28.74-30.22,0-60.45,0-90.67,0-17.94,0-20.65-2.67-20.65-20.48,0-274.52,0-549.04.05-823.56,0-3.84.42-7.77,1.29-11.51C4.36,3.58,8.85.17,16.23.13c16.62-.09,33.25-.03,49.87-.03,86.14,0,172.28,0,258.42,0,11.62,0,19.52,6.62,19.61,18.32.33,39.49.07,78.98,0,118.48,0,.39-.3.78-.87,2.18Z"/>
      <path class="cls-1" d="M799.02,1085.56c0,32.2-.15,64.12.15,96.03.05,5.35-1.64,6.66-6.55,6.55-14.65-.34-29.31-.47-43.96-.4-4.36.02-5.88-2.19-5.87-5.86.01-3.63.83-7.25.82-10.88-.28-56.59-.64-113.18-.97-169.77-.02-3.43-.33-6.91.16-10.26.35-2.42,1.81-4.68,3.1-7.82-3.56-2.85-5.92-6.84-.68-10.33-.99-6.06-2.5-11.42-2.63-16.81-.35-14.84-.12-29.69-.12-45.21h65.71c7.07,29.6,14.16,59.29,21.25,88.98l1.22-.18v-88.72h56.01c.15,2.26.44,4.53.44,6.81.02,87.6-.04,175.2.15,262.8.01,5.93-1.54,7.83-7.55,7.69-16.4-.37-32.81-.32-49.21-.01-4.8.09-6.74-1.49-7.81-6.1-7.21-30.98-14.68-61.9-22.1-92.84-.29-1.21-.97-2.33-1.55-3.69Z"/>
      <path class="cls-1" d="M1556.91,940.48c-7.48-7.71-5.39-16.3-2.79-25.04.35-1.19-.57-2.77-1.08-4.92h6.2c27.19,0,54.38-.19,81.56.13,7.03.08,14.24,1.06,21.03,2.88,22.6,6.07,35,21.64,38.95,44.22,1.07,6.11,1.42,12.42,1.43,18.64.11,49.41.21,98.82-.08,148.22-.05,7.87-1.16,15.97-3.28,23.55-6.77,24.19-26.6,38.75-53.79,39.3-28.89.59-57.8.33-86.7.67-4.87.06-6.2-1.54-6.19-6.33.17-54.8.13-109.6.14-164.41,0-24.16,0-48.31.01-72.47,0-2.92-.81-6.82,4.59-4.46ZM1621.16,966.65v164.83c11.21,1.2,13.35-.64,13.35-11.18.02-47.45.02-94.89,0-142.34,0-10.53-2.03-12.29-13.35-11.31ZM1609.67,1143.54c.44,2.62.75,5.82,1.72,8.8.14.43,4.35.52,5.07-.43,1.08-1.45.75-3.95,1.05-6.19,1.01-.34,2.42-.81,3.82-1.28-.06-.56-.13-1.12-.19-1.69-3.49.24-6.99.49-11.45.8ZM1610.3,1164.91c4.75,1.04,8,1.76,11.25,2.47.25-.51.49-1.03.74-1.54-1.82-2.61-3.63-5.22-5.98-8.59-1.81,2.31-3.43,4.37-6.01,7.66Z"/>
      <path class="cls-1" d="M572.64,910.95v105.89c.31.03.62.06.94.09,5.71-35.33,11.42-70.66,17.13-106.03h68.68c-5.9,30.62-11.71,60.8-17.54,90.98-2.33,12.04-5.78,23.99-6.69,36.14-.74,9.83.97,19.98,2.63,29.82,6.46,38.19,13.35,76.3,20.03,114.45.28,1.61.04,3.32.04,5.77-7.17,0-14.03,0-20.88,0-14.03,0-28.07-.28-42.09.14-5.6.17-7.32-1.8-8.03-7.11-4.23-31.74-8.8-63.43-14.26-95.07,0,19.98,0,39.96,0,59.94,0,12.09-.18,24.17.1,36.25.1,4.49-1.25,5.99-5.81,5.94-18.76-.21-37.53-.26-56.29.03-5.33.08-6.45-1.88-6.43-6.79.16-46.18.09-92.37.09-138.55,0-41.44,0-82.87,0-124.31v-7.58h68.39Z"/>
      <path class="cls-1" d="M1101.19,1188.06c0-33.05-.02-64.75,0-96.45.02-21.19.01-42.38.29-63.56.04-3.26,1.56-6.51,2.39-9.76.61.51,1.21,1.01,1.82,1.52,4.82-1.18,9.63-2.37,14.84-3.64-.4-1.36-.94-3.18-1.7-5.73,3.4.43,6.13.77,8.71,1.09,1.94-6.14,3.94-12.45,6.08-19.22-2.25-2.81-9.92,5.31-10-4.28-1.9.43-3.7.83-5.43,1.22-2.36-6.93.2-17.65-14.7-15.6,4.18-4.88,7.21-8.43,11.62-13.58-4.83.72-8.3,1.24-12.63,1.88.36-4.31-3.81-8.8.6-12.27,0-3.5.38-6.57-.08-9.51-.99-6.43,5.47-2.81,7.36-6.06-8.27-5.43-10.34-13.36-8.48-22.25,16.79,0,33.2.05,49.61-.06,2.45-.02,4.92-1.26,7.35-1.17,16.33.62,32.93-.17,48.91,2.6,24.35,4.21,39.09,21.57,42.21,46.05.87,6.82,1.31,13.74,1.32,20.61.11,47.9.18,95.8-.07,143.7-.04,7.47-.99,15.11-2.78,22.36-5.73,23.24-21.29,36.25-44.49,40.24-7.39,1.27-15,1.72-22.51,1.78-24.17.22-48.35.08-72.52.08h-7.75ZM1169.81,967.33v163.52c11.73,1.75,13.28.48,13.28-10.48.01-36.66-.07-73.31.05-109.97.03-9.87.5-19.75,1.03-29.61.63-11.87-2.68-15.28-14.37-13.45Z"/>
      <path class="cls-1" d="M253.14,910.83h87.76c12.11,92.12,24.2,184.06,36.37,276.63-2.45.24-4.31.58-6.17.58-18.14.04-36.27-.1-54.41.11-4.81.06-6.92-1.2-7.14-6.42-.39-9.02-1.6-18.01-2.52-27.52h-28.21c-1,10.84-2,21.7-3.06,33.2h-58.94c12.1-92.11,24.16-183.99,36.32-276.58ZM293.64,1003.26c-.48-.03-.97-.06-1.45-.09-.41,4.76-.81,9.53-1.24,14.29-2.23,24.89-4.52,49.76-6.54,74.67-.11,1.39,1.77,4.12,2.93,4.25,4.62.5,9.32.2,14.49.2-2.79-31.76-5.49-62.54-8.19-93.32Z"/>
      <path class="cls-1" d="M1479.62,1188.02c-.95-10.3-2-19.68-2.61-29.1-.24-3.77-1.41-5.41-5.38-5.3-7.52.22-15.05.06-23.55.06-.81,9.29-2,18.18-2.21,27.1-.13,5.58-1.81,7.52-7.53,7.39-15.1-.35-30.21-.1-45.32-.13-2.1,0-4.2-.25-6.79-.41,1.45-11.85,2.76-23.12,4.23-34.37,3.73-28.38,7.49-56.75,11.33-85.11,4.56-33.69,9.12-67.38,13.95-101.04.91-6.31,3.14-12.43,4.63-18.67.21-.9-.46-1.97-.54-2.98-.28-3.66-.48-7.33-.68-10.58h15.85c.1-.8.2-1.6.31-2.4-5.3-2.03-10.6-4.07-15.89-6.1.18-.67.35-1.35.53-2.02,2.29-.68,4.57-1.37,6.55-1.96.44-3.96.84-7.61,1.24-11.21h82.38c1.81,13.45,3.67,27.23,5.51,41.01,3.72,27.94,7.45,55.89,11.12,83.84,3.67,27.96,7.29,55.92,10.92,83.89,2.72,20.92,5.36,41.84,8.17,62.75.4,2.94.68,5.32-3.21,5.32-20.69.03-41.37.01-63.02.01ZM1471.07,1096.19c-2.85-32.53-5.66-64.56-8.47-96.59-.3.02-.6.03-.89.05-2.8,32.06-5.59,64.11-8.42,96.54h17.78Z"/>
      <path class="cls-1" d="M1260.84,910.8h119.27c0,3.44,0,6.78,0,10.12,0,13.59-.29,27.2.13,40.78.18,5.88-1.82,7.28-7.4,7.14-14.39-.37-28.8-.12-43.58-.12v49.39c5.88,0,11.82,0,17.76,0,8.63,0,17.28-.21,25.89.17,1.84.08,5.13,2.28,5.15,3.55.34,17.85.23,35.71.23,54.2h-48.83v53.27c2.18.13,4.47.37,6.76.38,13.17.01,26.33.06,39.5-.12,3.34-.05,5.32.43,5.3,4.41-.11,16.61.06,33.23-.22,49.84-.02,1.43-2.5,2.94-4.04,4.16-.53.42-1.67.09-2.54.09-35.83,0-71.66-.03-107.49.05-3.93,0-6.32-.29-6.31-5.41.15-89.55.11-179.09.12-268.64,0-.85.15-1.69.29-3.26Z"/>
      <path class="cls-1" d="M383.07,910.75h67.87v218.74h46.52c0,11.9,0,22.83,0,33.75,0,6.47-.15,12.95.06,19.42.12,3.68-.71,5.5-4.93,5.47-29.14-.17-58.27.01-87.41-.34-5.32-.06-10.81,1.59-16.17-2.96-3.45-2.94-5.7-5.26-5.71-9.6-.09-37.52-.19-75.05-.23-112.57-.04-42.05-.01-84.1-.01-126.15,0-8.38,0-16.76,0-25.76Z"/>
      <path class="cls-1" d="M664.97,910.87h67.98c0,6.72,0,13.11,0,19.5,0,83.31-.07,166.63.14,249.94.02,6.26-1.73,8.03-7.94,7.89-18.13-.4-36.27-.23-54.41-.08-4.15.03-6.16-.76-6.15-5.64.14-89.36.1-178.71.11-268.07,0-1.04.16-2.08.27-3.54Z"/>
      <path class="cls-1" d="M234.51,752.85c6.72,0,12.93.1,19.13-.04,3.95-.09,3.86,2.43,3.86,5.17-.03,10.79,0,21.57,0,32.36,0,2.33,0,4.65,0,7.4h14.87v-30.74q0-14.16,14.25-14.16c2.57,0,5.13,0,8.22,0v112.31h-22.29v-46.18h-14.76v46.02h-23.28v-112.14Z"/>
      <path class="cls-1" d="M306.2,865.12v-111.76h46.06v20.08h-22.9v24.59h22.41v20.39h-22.4v26.37c6.68,0,13.09.11,19.49-.05,3.34-.08,4.66,1.17,4.54,4.53-.17,5.12-.05,10.26-.05,15.85h-47.15Z"/>
      <path class="cls-1" d="M222.39,753.33v19.33c-.51.36-.67.56-.85.58-3.98.49-10.1-.38-11.45,1.75-2.09,3.3-1.08,8.66-1.09,13.15-.06,25.44-.03,50.88-.03,76.89h-22.82c0-2.32,0-4.6,0-6.89,0-25.46-.22-50.92.15-76.38.1-6.46-1.44-9.3-8.16-8.18-1.62.27-3.36-.18-5.39-.33v-19.92h49.63Z"/>
    </g>
  </g>
</svg>