<?xml version="1.0" encoding="UTF-8"?>
<svg id="Capa_2" data-name="Capa 2" xmlns="http://www.w3.org/2000/svg" viewBox="0 0 2756.61 1226.51">
  <defs>
    <style>
      .cls-1 {
        fill: #400913;
        stroke-width: 0px;
      }
    </style>
  </defs>
  <g id="Logos">
    <g id="The_One_Lives" data-name="The One Lives">
      <path class="cls-1" d="M1726.07,380.38c21.08,0,44-.75,66.82.51,5.88.32,13.06,5.73,16.86,10.85,73.22,98.51,146.57,196.95,218.19,296.61,8.29,11.53,6.5,30.27,9.26,44.97-24.95,7.21-37.54.23-50.22-17.34-74.8-103.63-150.87-206.36-227.4-308.73-8.36-11.18-22.36-18.14-33.5-26.87Z"/>
      <path class="cls-1" d="M2583.16,376.82c-43.62,25.79-57.16,48-43.18,84.33,6.15,16,19.63,32.02,34.1,41.41,30.68,19.92,64.43,35.05,96.41,53.04,15.38,8.66,30.88,17.9,44.1,29.42,41.75,36.36,38.79,98.33-5.95,130.93-20.32,14.81-43.45,23.32-72.93,24.3,8.15-3.89,12.59-6.62,17.41-8.21,56.45-18.51,60.21-84.56,16.31-114.72-29.56-20.3-62.92-35.04-94.27-52.8-17.05-9.66-34.48-19.11-49.93-31.01-27.13-20.9-39.49-48.97-31.8-83.38,8.12-36.33,33.66-56.39,67.2-67.96,7.26-2.5,15-3.61,22.52-5.36Z"/>
      <path class="cls-1" d="M269.66,998.35c-9.96,24.64-19.91,49.29-29.87,73.93-1.81.08-3.62.16-5.43.23,37.16-74.87,34.21-143.97-23.42-205.6h100.07c-19.81,10.67-20.74,23.01-13.46,40.33,31,73.8,59.64,148.6,91.48,222.03,9.26,21.35,10.65,39.04-.19,59.16-6.12,11.36-9.62,24.14-14.3,36.28-1.93.46-3.86.93-5.79,1.39-31.15-76.11-62.3-152.23-93.45-228.34-1.88.2-3.76.39-5.64.59Z"/>
      <path class="cls-1" d="M2245.96,1226.51c-12.57-27.83-25.24-55.61-37.7-83.5-35.34-79.09-70.22-158.39-106.2-237.18-6.49-14.2-17.32-26.43-25.53-38.66h101.72c-24.49,9.93-23.31,24.76-15.77,41.66,36.34,81.46,72.88,162.84,108.35,244.67,3.5,8.07,2.34,19.7-.37,28.55-4.55,14.83-12.08,28.75-18.36,43.05-2.04.47-4.09.94-6.13,1.41Z"/>
      <path class="cls-1" d="M441.98,555.12h149.23c0,1.96,0,3.91.01,5.87h-151.02c0,50.6-.2,97.62.11,144.64.11,15.64,4.31,19.42,29.78,29.68h-111.06c26.86-3.28,29.9-20.86,29.81-43.81-.34-88.8,1.32-177.61,1.08-266.41-.04-16.46,3.74-37.84-22.23-43.36h94c-18.83,5.58-20.13,19.69-19.92,35.92.56,44.62.19,89.26.19,137.46Z"/>
      <path class="cls-1" d="M166.29,1225.56c-17.85-43.61-35.71-87.21-53.54-130.83-26.54-64.94-52.64-130.05-79.93-194.67-5.17-12.25-15-22.53-22-32.73h96.91c-21.31,12.05-17.42,27.21-10.78,43.38,31.35,76.3,62.09,152.84,93.94,228.93,5.55,13.25,6.5,24.37.33,37.4-7.46,15.75-13.13,32.35-19.57,48.58-1.79-.02-3.57-.03-5.36-.05Z"/>
      <path class="cls-1" d="M808.11,1045.31c-43.4,0-86.81.5-130.2-.29-13.97-.26-18.31,4.31-18.08,18.02.69,41.41-.48,82.87.76,124.26.32,10.62,6.86,21.06,10.86,32.53h-86.5c24.74-8.55,23.73-25.91,23.65-43.99-.44-91.4-.39-182.8-.02-274.2.07-16.42-4.49-28.22-27.35-33.9h101.7c-19.81,6.24-23.34,18.45-23.07,34.4.74,43.94.26,87.9.26,135.88h148.19c-.07,2.43-.13,4.86-.2,7.29Z"/>
      <path class="cls-1" d="M1667.8,1220.05h-71.67c16.77-7.65,19.69-20.52,19.63-36.37-.33-92.19-.15-184.38-.1-276.57.01-19.51-1.65-37.84-26.46-42.63h104.05c-26.18,4.76-25.89,23.43-25.77,43.89.58,96.8.3,193.6.32,290.4,0,5.84,0,11.67,0,21.27Z"/>
      <path class="cls-1" d="M606.6,381.2h102.34c-19.74,4.45-24.66,17.05-24.52,35.99.7,91.5.71,183.02-.08,274.52-.19,21.83,1.86,39.66,27.98,44.06h-108.01c26.07-4.37,28.65-22.37,28.47-44.55-.74-90.84-.57-181.7-.09-272.54.1-19.38-3.64-34.14-26.11-37.47Z"/>
      <path class="cls-1" d="M1922.91,867.08h93.76c-19.27,8.64-23.84,20.98-23.73,37.75.59,93.45.56,186.92.03,280.37-.09,15.88,4.54,26.71,19.97,34.5h-85.97c4.83-8.98,13.09-17.65,13.8-26.89,2.1-27.49,1.43-55.21,1.48-82.83.13-68.45-.05-136.9.12-205.35.04-15.97-2.16-30.27-19.47-37.55Z"/>
      <path class="cls-1" d="M832.06,866.87h96.02c-21.59,7.53-26.72,20.1-26.64,37.19.42,93.42.39,186.85,0,280.27-.06,15.48,4.01,26.99,19.54,35.19h-82.89c4.23-10.05,12.09-20.13,12.18-30.28.91-97.36.49-194.74.48-292.11,0-13.7-3.78-24.78-18.69-30.25Z"/>
      <path class="cls-1" d="M204.31,736.08h-106.7c32.68-5.96,26.97-31.26,27-53.34.11-91.5.03-182.99.02-274.49,0-8.39,0-16.78,0-26.49h51.62c0,7.2,0,14.2,0,21.2.02,96.1.44,192.21-.23,288.31-.15,22.12,2.61,39.85,28.29,44.81Z"/>
      <path class="cls-1" d="M2481.09,1222.32c19-9.19,21.59-24.08,21.53-41.98-.29-92.84.62-185.69-.32-278.52-.12-11.58-8.67-23.09-13.13-34.17h65.13c.58,9.99,1.62,19.66,1.64,29.34.12,100.75-.45,201.5.54,302.24.19,19.22-6.88,24.17-24.07,23.28-17.07-.88-34.21-.19-51.32-.19Z"/>
      <path class="cls-1" d="M2218.63,735.23h-79.17c29.38-2.14,29.57-22.65,29.43-45.05-.58-90.81-.58-181.62-.24-272.43.07-17.7-3.83-31.19-23.21-36.43h73.2v353.91Z"/>
      <path class="cls-1" d="M799.92,381.54h73.77c.44,7.5,1.13,13.88,1.13,20.26.04,104.61-.35,209.22.33,313.83.11,16.42-4.44,22.26-21.06,21.1-18.88-1.32-37.92-.3-58.24-1.67,24.56-6.01,26.48-22.99,26.29-43.66-.82-92.1-.6-184.22-.18-276.33.08-16.59-3.92-28.51-22.04-33.53Z"/>
      <path class="cls-1" d="M1497.72,376.62c86.13,4.43,163.05,71.95,163.52,170.49.5,105.61-73.34,193.12-163.23,192.38,74.12-25.34,97.34-84.87,102.7-153.44,2.63-33.6-.46-68.52-6.73-101.75-10.13-53.67-39.13-93.73-96.26-107.68Z"/>
      <path class="cls-1" d="M1460.37,374.86c-74.41,28.44-108.79,77.83-108.28,153.79.22,32.65.61,65.94,6.89,97.76,10.46,52.95,38.84,94.1,97.12,113.04-80.9-3.6-164.52-79.87-165.16-182.81-.66-105.3,78.58-175.66,169.42-181.78Z"/>
      <path class="cls-1" d="M1151.35,1225.05c-87.43-8.09-160.41-78.72-163.58-177.11-3.17-98.1,70.33-182.71,156.25-186.86-15.31,10.42-36.29,21.44-53.15,36.93-23.97,22.03-36.57,52.45-38.74,84.07-2.86,41.66-5.29,84.58,1.54,125.38,8.89,53.12,37.35,96.53,97.69,117.59Z"/>
      <path class="cls-1" d="M1200.09,1224.3c66.6-25.82,89.36-80.31,97.07-145.1,5.6-47.05,2.56-93.1-14.32-137.72-14-37.01-38.12-63.79-77.27-75.18-3.33-.97-6.22-3.46-10.27-5.8,75.95,5.42,164.6,64.44,163.63,180.93-.93,111.21-81,175.55-158.84,182.87Z"/>
      <path class="cls-1" d="M2313.21,1080.59c13.77-38.12,27.91-76.11,41.12-114.43,5.11-14.82,9.23-30.19,11.77-45.64,4.71-28.6-1-38.65-28.71-53.12h81.52c-9.84,17.17-21.77,34.85-30.57,53.97-22.49,48.85-43.55,98.36-65.29,147.56-2.08,4.71-4.96,9.07-7.46,13.59-.79-.64-1.58-1.29-2.37-1.93Z"/>
      <path class="cls-1" d="M442.18,1048.76c9.19-30.43,18.72-60.77,27.41-91.35,3.57-12.56,6.25-25.53,7.65-38.5,2.29-21.1-.38-40.74-28.8-51.99h79.71c-40.88,54.77-53.28,122.89-85.97,181.84Z"/>
      <path class="cls-1" d="M2488.88,619.35c16.31,57.34,49.04,99.22,105.73,122.41-15.07-4.12-30.59-7.08-45.08-12.69-14.41-5.58-27.78-13.81-43.35-21.77-5.13,10.35-9.91,19.99-17.3,34.89v-122.84Z"/>
      <path class="cls-1" d="M1990.35,380.83h75.88c-26.05,7.1-31.51,26.06-31.36,49.7.42,68.66.15,137.32-3.61,206.34-.67-6.62-1.81-13.23-1.94-19.86-1.17-62.43-2.05-124.87-3.25-187.3-.58-30.07-4.71-35.9-35.73-48.88Z"/>
      <path class="cls-1" d="M2622.92,1216.59c62-1.31,117.63-8.6,128.2-85.79,1.8,1.03,3.6,2.07,5.4,3.1,0,9.67.23,19.34-.06,29-.4,13.56.04,27.33-2.32,40.58-1.19,6.65-7.57,17.48-11.95,17.65-36.04,1.4-72.16.88-108.25.48-3.53-.04-7.03-3.12-11.03-5.01Z"/>
      <path class="cls-1" d="M1074.06,648.64c0,27.68-.26,49.92.1,72.14.19,11.63-4.27,16.01-16.33,15.87-47.25-.55-94.5-.23-141.85-2.24,27.21-2.54,54.44-4.82,81.61-7.67,38.93-4.09,60.41-27.53,70.02-63.9.92-3.47,2.97-6.65,6.44-14.21Z"/>
      <path class="cls-1" d="M2418.43,650.78v84.54h-160.52c30.7-3.17,58.04-5.87,85.35-8.82,39.81-4.3,61.72-28.34,71.72-65.35.64-2.37,1.55-4.67,3.46-10.36Z"/>
      <path class="cls-1" d="M1764,468.6c.26,3.82.68,7.63.74,11.45,1.07,67.46,2.2,134.93,3.11,202.39.48,35.67,1.57,37.7,34.62,53.05h-81.82c37.27-6.1,36.94-33.77,36.72-62.43-.51-68.2-.16-136.41-.16-204.62,2.26.05,4.53.11,6.79.16Z"/>
      <path class="cls-1" d="M1854.36,1219.8h-125.21c64.02-.92,116.41-15.91,124.23-94.99,1.77,1.43,3.55,2.85,5.32,4.28-1.39,28.98-2.77,57.97-4.34,90.72Z"/>
      <path class="cls-1" d="M2642.18,374.42c18,7.02,38.01,11.14,53.46,21.83,17.33,12,24.72,10.15,29.89-9.17.76-2.84,2.92-5.32,7.25-12.88v113.89c-13.31-50.78-42.55-88.26-92.21-108.48.54-1.73,1.07-3.46,1.61-5.19Z"/>
      <path class="cls-1" d="M931.45,380.16h132.66v81.21c-11.88-82.16-76.53-73.53-132.66-81.21Z"/>
      <path class="cls-1" d="M2408.88,381.65v79.4c-15.61-57.93-33.94-72.85-94.32-75.65-16.38-.76-32.75-2-49.16-3.74h143.48Z"/>
      <path class="cls-1" d="M2744.8,945.7c-18.59-54.56-24.27-72.43-126.84-79.5,38.27,0,76.55-.35,114.81.5,4.09.09,11.3,7.01,11.5,11.04,1.12,22.6.54,45.29.54,67.95Z"/>
      <path class="cls-1" d="M1020.41,507.6v87.39c-19.78-54.63-67.16-36.9-105.84-45.36,10.2-.54,20.47-2.16,30.57-1.43,33.82,2.45,61.88-4.44,75.27-40.6Z"/>
      <path class="cls-1" d="M2700.39,1081.23c-16.94-54.57-67.02-34.67-106.53-46.83,42.33-2.07,86.78,9.97,106.53-41.24v88.07Z"/>
      <path class="cls-1" d="M0,472.93v-91.04h76.25C23.31,388.85,6.41,425.29,0,472.93Z"/>
      <path class="cls-1" d="M2263.21,551.19c36.5-7,82.61,10.23,102.04-40.63v82.17c-18.67-51.04-64.68-34.32-102.04-41.53Z"/>
      <path class="cls-1" d="M220.99,381.39h77.54v86.9c-5.89-46.4-25.09-81.16-77.54-86.9Z"/>
      <g id="The_Walking" data-name="The Walking">
        <path class="cls-1" d="M830.48,100.58h45.48c1.98,21.49,3.93,42.73,5.89,63.96.13,0,.26-.02.39-.03,2-21.17,4-42.34,6.02-63.71h39.48c2,20.83,4,41.67,6,62.5.19-.01.38-.03.57-.04,1.2-13.1,2.42-26.21,3.6-39.31.62-6.84,1.1-13.7,1.85-20.52.11-1.01,1.33-2.7,2.06-2.72,11.8-.17,23.6-.12,35.86-.12-.99,8.63-1.88,16.78-2.87,24.92-2.12,17.45-4.28,34.89-6.43,52.33-2.4,19.49-4.84,38.97-7.22,58.46-1.49,12.27-2.99,24.54-4.28,36.83-.36,3.4-1.37,4.48-5.07,4.39-11.8-.3-23.62-.07-35.43.09-3.18.04-4.7-.46-5.08-4.35-1.99-20.29-4.44-40.53-7.52-60.85-2.39,21.53-4.78,43.06-7.24,65.16h-26.87c-3.3,0-6.61.05-9.91-.01-9.32-.18-6.95,1.46-8.47-7.92-.44-2.74-3.47-28.16-4.2-34.1-2.38-19.48-4.87-38.95-7.04-58.45-2.16-19.45-5.03-38.81-7.12-58.27-.59-5.55-1.62-11.06-2.45-16.59,0-.55,0-1.1,0-1.65Z"/>
        <path class="cls-1" d="M1431.1,278.97c-1.28-.37-2.55-.8-3.85-1.11-15.98-3.86-25.01-15.51-25.04-32.75-.07-37.44-.03-74.87,0-112.31,0-2.04.24-4.12.63-6.13,3.1-16.4,11.07-25.06,27.72-26.83,12.63-1.34,25.66-1.5,38.26-.04,18.6,2.17,27.77,12.81,28.93,31.63.67,10.83.18,21.74.21,32.61,0,1.22,0,2.44,0,4.09h-42.9c0-9.45.01-18.77,0-28.08,0-4.64-1.12-5.62-5.56-5.35-2.85.18-4.13,1.42-4.13,4.39.05,33.17.06,66.34,0,99.51,0,4.01,2.07,4.7,5.49,4.68,3.44-.02,4.55-1.36,4.45-4.71-.2-6.86-.22-13.73,0-20.59.12-3.78-.23-6.62-5.22-5.81v-34.55h48.3c.09,1.52.24,2.86.24,4.2.01,19.82.33,39.65-.17,59.45-.17,6.72-1.59,13.7-3.93,20-3.71,10.01-12.3,14.67-22.38,16.81-1.04.22-2.04.6-3.06.9h-38Z"/>
        <path class="cls-1" d="M1340.03,212.2c0,20.53-.1,40.89.09,61.24.03,3.41-1.05,4.25-4.18,4.18-9.34-.22-18.69-.3-28.03-.26-2.78.01-3.75-1.4-3.74-3.73,0-2.31.53-4.62.52-6.94-.18-36.09-.41-72.18-.62-108.26-.01-2.19.05-25.4-.03-28.84-.22-9.46-.08-18.94-.08-28.83h41.9c4.51,18.88,9.03,37.81,13.55,56.75l.78-.11v-56.58h35.72c.1,1.44.28,2.89.28,4.34.01,55.86-.02,111.73.09,167.59,0,3.78-.98,4.99-4.82,4.9-10.46-.24-20.92-.2-31.38,0-3.06.06-4.3-.95-4.98-3.89-4.6-19.76-9.36-39.48-14.09-59.2-.19-.77-.62-1.49-.99-2.35Z"/>
        <path class="cls-1" d="M1820.88,100.58h3.95c17.34,0,34.68-.12,52.01.08,4.48.05,9.08.68,13.41,1.84,14.41,3.87,22.32,13.8,24.84,28.2.68,3.9.91,7.92.91,11.89.07,31.51.13,63.02-.05,94.52-.03,5.02-.74,10.19-2.09,15.02-4.31,15.43-16.96,24.71-34.3,25.06-18.43.38-36.86.21-55.29.43-3.1.04-3.95-.98-3.94-4.04.11-34.95.08-69.9.09-104.84,0-15.41.79-66.79.46-68.16ZM1864.32,136.37v105.11c7.15.76,8.51-.41,8.52-7.13.01-30.26.01-60.52,0-90.77,0-6.72-1.29-7.84-8.52-7.21Z"/>
        <path class="cls-1" d="M1195.67,100.85v67.53c.2.02.4.04.6.05,3.64-22.53,7.28-45.06,10.92-67.61h43.8c-3.76,19.53-7.47,38.77-11.18,58.02-1.48,7.68-3.69,15.3-4.27,23.05-.47,6.27.62,12.74,1.68,19.02,4.12,24.35,8.51,48.66,12.77,72.99.18,1.03.02,2.12.02,3.68-4.58,0-8.94,0-13.31,0-8.95,0-17.9-.18-26.84.09-3.57.11-4.67-1.15-5.12-4.53-2.7-20.24-5.61-40.45-9.1-60.63,0,12.74,0,25.48,0,38.22,0,7.71-.11,15.42.06,23.12.07,2.86-.8,3.82-3.71,3.79-11.96-.13-23.93-.17-35.9.02-3.4.05-4.11-1.2-4.1-4.33.1-29.45.06-58.9.06-88.35,0-26.42,0-52.85,0-79.27v-4.84h43.61Z"/>
        <path class="cls-1" d="M1532.73,277.57c0-21.08-.01-41.29,0-61.51.01-13.51,0-27.02.19-40.54.03-2.08.26-59.39.26-74.09,10.71,0,21.17.03,31.64-.04,1.57-.01,3.14-.8,4.69-.74,10.41.4,21-.11,31.19,1.66,15.53,2.69,24.93,13.76,26.92,29.37.55,4.35.83,8.76.84,13.14.07,30.55.11,61.1-.04,91.64-.02,4.76-.63,9.63-1.77,14.26-3.65,14.82-13.57,23.12-28.37,25.66-4.71.81-9.56,1.09-14.35,1.14-15.42.14-30.83.05-46.25.05h-4.94ZM1576.49,136.8v104.28c7.48,1.12,8.47.3,8.47-6.69,0-23.38-.04-46.75.03-70.13.02-6.29.32-12.59.66-18.88.4-7.57-1.71-9.74-9.16-8.58Z"/>
        <path class="cls-1" d="M991.91,100.77h55.96c7.72,58.75,15.43,117.38,23.19,176.41-1.56.15-2.75.37-3.93.37-11.57.03-23.13-.06-34.7.07-3.07.04-4.41-.76-4.56-4.1-.25-5.76-1.02-11.49-1.61-17.55h-17.99c-.64,6.91-1.27,13.84-1.95,21.17h-37.59c7.71-58.74,15.41-117.33,23.16-176.38ZM1017.74,159.71c-.31-.02-.62-.04-.93-.06-.26,3.04-.52,6.08-.79,9.11-1.42,15.87-2.88,31.74-4.17,47.62-.07.89,1.13,2.63,1.87,2.71,2.95.32,5.94.13,9.24.13-1.78-20.25-3.5-39.88-5.22-59.51Z"/>
        <path class="cls-1" d="M1774.06,277.54c-.61-6.57-1.27-12.55-1.66-18.56-.16-2.41-.9-3.45-3.43-3.38-4.8.14-9.6.04-15.02.04-.52,5.92-1.28,11.6-1.41,17.28-.08,3.56-1.16,4.79-4.8,4.71-9.63-.22-19.27-.06-28.9-.09-1.34,0-2.68-.16-4.33-.26.93-7.56,1.76-14.74,2.7-21.92,2.38-18.1,23.51-152.08,23.77-154.37h52.54c1.15,8.57,2.34,17.36,3.51,26.15,2.37,17.82,4.75,35.64,7.09,53.47,2.34,17.83,4.65,35.66,6.97,53.5,1.73,13.34,3.42,26.68,5.21,40.02.25,1.87.43,3.39-2.05,3.4-13.19.02-26.39,0-40.19,0ZM1768.61,218.98c-1.82-20.75-3.61-41.17-5.4-61.6-.19.01-.38.02-.57.03-1.78,20.44-3.57,40.89-5.37,61.56h11.34Z"/>
        <path class="cls-1" d="M1634.54,100.75h76.06c0,2.2,0,4.32,0,6.45,0,8.67-.18,17.34.09,26,.12,3.75-1.16,4.64-4.72,4.55-9.18-.24-18.37-.08-27.79-.08v31.5c3.75,0,7.54,0,11.33,0,5.51,0,11.02-.13,16.51.11,1.18.05,3.27,1.45,3.28,2.26.22,11.38.15,22.77.15,34.57h-31.14v33.97c1.39.08,2.85.24,4.31.24,8.4,0,16.79.04,25.19-.07,2.13-.03,3.4.27,3.38,2.81-.07,10.59.04,21.19-.14,31.78-.02.91-1.6,1.87-2.58,2.65-.34.27-1.07.06-1.62.06-22.85,0-45.7-.02-68.55.03-2.51,0-4.03-.18-4.02-3.45.09-57.11.07-114.21.08-171.32,0-.54.09-1.08.19-2.08Z"/>
        <path class="cls-1" d="M1074.77,100.72h43.28v139.49h29.67c0,7.59,0,14.56,0,21.53,0,4.13-.1,8.26.04,12.38.08,2.35-.46,3.51-3.15,3.49-18.58-.11-37.16,0-55.74-.22-3.39-.04-6.9,1.02-10.31-1.89-2.2-1.88-3.64-3.35-3.64-6.12-.06-23.93-.12-47.86-.14-71.79-.02-26.82,0-53.63,0-80.45,0-5.34,0-10.69,0-16.43Z"/>
        <path class="cls-1" d="M1254.54,100.8h43.35c0,4.28,0,8.36,0,12.44,0,53.13-.04,106.26.09,159.39,0,3.99-1.1,5.12-5.06,5.03-11.56-.26-23.13-.14-34.7-.05-2.65.02-3.93-.49-3.92-3.6.09-56.98.06-113.97.07-170.95,0-.66.1-1.32.17-2.26Z"/>
        <path class="cls-1" d="M980.03.02c4.28,0,8.24.06,12.2-.02,2.52-.06,2.46,1.55,2.46,3.3-.02,6.88,0,13.76,0,20.63,0,1.48,0,2.97,0,4.72h9.48V9.04Q1004.17.01,1013.26.01c1.64,0,3.27,0,5.24,0v71.62h-14.21v-29.45h-9.41v29.35h-14.84V.02Z"/>
        <path class="cls-1" d="M1025.75,71.62V.35h29.37v12.81h-14.6v15.68h14.29v13h-14.29v16.81c4.26,0,8.35.07,12.43-.03,2.13-.05,2.97.74,2.9,2.89-.11,3.27-.03,6.54-.03,10.11h-30.07Z"/>
        <path class="cls-1" d="M972.3.33v12.33c-.33.23-.43.36-.54.37-2.54.31-6.44-.25-7.3,1.12-1.33,2.1-.69,5.52-.69,8.38-.04,16.22-.02,32.45-.02,49.03h-14.55c0-1.48,0-2.94,0-4.39,0-16.24-.14-32.48.1-48.71.06-4.12-.92-5.93-5.2-5.22-1.03.17-2.14-.12-3.44-.21V.33h31.65Z"/>
      </g>
    </g>
  </g>
</svg>